<svg width="22" height="22" viewBox="0 0 22 22" fill="none" xmlns="http://www.w3.org/2000/svg">
<path d="M11.6592 12.8125C12.7298 12.1639 13.6642 12.4253 14.2255 12.8417C14.4557 13.0124 14.5707 13.0977 14.6385 13.0977C14.7062 13.0977 14.8212 13.0124 15.0514 12.8417C15.6127 12.4253 16.5471 12.1639 17.6177 12.8125C19.0228 13.6637 19.3407 16.4719 16.0998 18.8411C15.4825 19.2923 15.1739 19.518 14.6385 19.518C14.103 19.518 13.7944 19.2923 13.1771 18.8411C9.9362 16.4719 10.2541 13.6637 11.6592 12.8125Z" stroke="#262B62" stroke-width="1.33077" stroke-linecap="round"/>
<path d="M2.66154 7.09741H18.6308" stroke="#262B62" stroke-width="1.33077" stroke-linecap="round" stroke-linejoin="round"/>
<path d="M15.9692 1.77435V3.54871M5.32307 1.77435V3.54871" stroke="#262B62" stroke-width="1.33077" stroke-linecap="round" stroke-linejoin="round"/>
<path d="M9.80333 19.518C6.22754 19.518 4.43965 19.518 3.3288 18.317C2.21794 17.1161 2.21794 15.1833 2.21794 11.3176V10.862C2.21794 6.99626 2.21794 5.06341 3.3288 3.86248C4.43965 2.66156 6.22754 2.66156 9.80333 2.66156H11.489C15.0648 2.66156 16.8526 2.66156 17.9635 3.86248C19.0535 5.04085 19.074 6.92391 19.0743 10.6462" stroke="#262B62" stroke-width="1.33077" stroke-linecap="round" stroke-linejoin="round"/>
</svg>
