<svg width="40" height="40" viewBox="0 0 40 40" fill="none" xmlns="http://www.w3.org/2000/svg">
<path d="M4.0625 6.25C3.475 6.25 2.925 6.475 2.5125 6.8875C2.10625 7.29375 1.875 7.85625 1.875 8.4375V20.625C1.875 20.9688 1.91875 21.4938 2.01875 21.8688L4.04375 30H2.5C2.325 30 2.15625 30.075 2.0375 30.2C1.91875 30.3312 1.8625 30.5 1.875 30.675L2.5 38.175C2.525 38.5 2.8 38.75 3.125 38.75H16.875C17.05 38.75 17.2188 38.675 17.3375 38.55C17.4563 38.4188 17.5125 38.25 17.5 38.075L16.875 30.575C16.85 30.25 16.575 30 16.25 30H14.3625L14.3375 28.4125C14.3188 25.8937 13.2875 23.5625 11.5813 22.1688C11.4375 22.0375 11.0063 21.6625 11.0063 21.6625C10.7188 21.4062 10.5125 21.0687 10.425 20.6875L9.09375 15.0938C8.80625 13.9312 7.6625 13.2063 6.49375 13.4375C6.4125 13.4563 6.33125 13.4875 6.25 13.5125V8.4375C6.25 7.23125 5.26875 6.25 4.0625 6.25ZM15.675 31.25L16.1938 37.5H3.7L3.18125 31.25H15.675ZM6.74375 14.6625C7.25625 14.5562 7.75625 14.8813 7.88125 15.3875L9.025 20.1375L9.2125 20.9688C9.3625 21.6062 9.7 22.1687 10.1813 22.6C10.1813 22.6 10.7313 23.0812 10.7438 23.1C10.7563 23.1125 10.775 23.1312 10.7875 23.1437C12.2063 24.3 13.0625 26.275 13.0813 28.4313L13.1062 30.0062H5.33125L3.23125 21.5687C3.16875 21.3375 3.125 20.9437 3.125 20.6312V8.4375C3.125 8.1875 3.225 7.94375 3.4 7.775C3.575 7.6 3.81875 7.5 4.0625 7.5C4.58125 7.5 5 7.91875 5 8.4375V14.5375C4.8125 14.8688 4.70625 15.2375 4.70625 15.625C4.70625 15.7125 4.70625 15.8125 6.26875 22.6375L7.4875 22.3563C6.9125 19.85 6.05625 16.075 5.9625 15.575C5.96875 15.3938 6.03125 15.2125 6.15 15.05C6.2875 14.85 6.5 14.7125 6.75 14.6562L6.74375 14.6625Z" fill="#0070FA"/>
<path d="M38.125 20.625V8.4375C38.125 7.85625 37.8938 7.29375 37.4875 6.8875C37.075 6.475 36.525 6.25 35.9375 6.25C34.7313 6.25 33.75 7.23125 33.75 8.4375V13.5125C33.6688 13.4875 33.5875 13.4563 33.5063 13.4375C32.3375 13.2 31.1938 13.9313 30.9063 15.1L29.7625 19.8625L29.575 20.6812C29.4875 21.0688 29.2812 21.4062 28.9938 21.6625C28.9938 21.6625 28.5625 22.0437 28.4188 22.175C26.7125 23.5688 25.6875 25.9 25.6625 28.4125L25.6375 30H23.75C23.425 30 23.1563 30.25 23.125 30.575L22.5 38.075C22.4875 38.25 22.5437 38.4188 22.6625 38.55C22.7812 38.6813 22.95 38.75 23.125 38.75H36.875C37.2 38.75 37.4688 38.5 37.5 38.175L38.125 30.675C38.1375 30.5 38.0813 30.3312 37.9625 30.2C37.8438 30.0688 37.675 30 37.5 30H35.9562L37.9813 21.875C38.0813 21.4875 38.125 20.9688 38.125 20.625ZM36.8188 31.25L36.3 37.5H23.8063L24.325 31.25H36.8188ZM36.875 20.625C36.875 20.9375 36.8313 21.325 36.7688 21.5687L34.6688 30H26.8937L26.9187 28.425C26.9375 26.275 27.7937 24.3 29.2375 23.1188C29.275 23.0813 29.825 22.6 29.825 22.6C30.3063 22.1687 30.6438 21.6063 30.7938 20.9625L32.125 15.3937C32.25 14.8812 32.7563 14.5625 33.2625 14.6625C33.5125 14.7125 33.725 14.8563 33.875 15.0688C33.9813 15.2188 34.0437 15.3938 34.05 15.5813C33.95 16.075 33.0938 19.8562 32.525 22.3625L33.7438 22.6437C35.3063 15.8187 35.3063 15.7188 35.3063 15.6313C35.3063 15.2375 35.2 14.8688 35.0125 14.5438V8.4375C35.0125 7.91875 35.4313 7.5 35.95 7.5C36.2 7.5 36.4375 7.6 36.6125 7.775C36.7875 7.95 36.8875 8.1875 36.8875 8.4375V20.625H36.875Z" fill="#0070FA"/>
<path d="M9.92502 13.8126C9.74377 13.8376 9.58752 13.9313 9.48127 14.0813C9.38127 14.2313 9.35002 14.4188 9.39377 14.5938C9.65627 15.6001 10.0563 16.5626 10.5813 17.4563C10.675 17.6126 10.825 17.7188 11.0063 17.7501C11.1813 17.7813 11.3688 17.7376 11.5063 17.6251C12.2813 17.0188 13.3875 17.0876 14.0875 17.7876C14.7875 18.4813 14.8563 19.5876 14.25 20.3626C14.1375 20.5063 14.0938 20.6876 14.125 20.8626C14.1563 21.0376 14.2688 21.1938 14.4188 21.2876C15.3063 21.8126 16.2688 22.2126 17.2813 22.4751C17.4563 22.5188 17.6438 22.4876 17.7938 22.3876C17.9438 22.2876 18.0438 22.1251 18.0625 21.9438C18.1813 20.9688 19.0125 20.2313 20 20.2313C20.9875 20.2313 21.8188 20.9688 21.9375 21.9438C21.9563 22.1251 22.0563 22.2813 22.2063 22.3876C22.3125 22.4563 22.4313 22.4938 22.5563 22.4938C22.6063 22.4938 22.6625 22.4876 22.7125 22.4751C23.7188 22.2126 24.6813 21.8126 25.575 21.2876C25.7313 21.1938 25.8375 21.0438 25.8688 20.8626C25.9 20.6876 25.8563 20.5001 25.7438 20.3626C25.1375 19.5876 25.2063 18.4813 25.9063 17.7813C26.6 17.0813 27.7063 17.0126 28.4813 17.6188C28.625 17.7313 28.8063 17.7751 28.9813 17.7438C29.1563 17.7126 29.3125 17.6001 29.4063 17.4501C29.9313 16.5626 30.3313 15.6001 30.5938 14.5876C30.6375 14.4126 30.6063 14.2251 30.5063 14.0751C30.4063 13.9251 30.2438 13.8251 30.0625 13.8063C29.0875 13.6876 28.35 12.8563 28.35 11.8688C28.35 10.8813 29.0875 10.0501 30.0625 9.93131C30.2438 9.90631 30.4 9.81256 30.5063 9.66256C30.6063 9.51256 30.6375 9.32506 30.5938 9.15006C30.3313 8.14381 29.9313 7.18131 29.4063 6.28756C29.3125 6.13131 29.1625 6.02506 28.9813 5.99381C28.8063 5.96256 28.6188 6.00631 28.4813 6.11881C27.7063 6.72506 26.6 6.65631 25.9 5.95631C25.2 5.26256 25.1313 4.15631 25.7375 3.38131C25.85 3.23756 25.8938 3.05631 25.8625 2.88131C25.8313 2.70631 25.7188 2.55006 25.5688 2.45631C24.6813 1.93131 23.7188 1.53131 22.7063 1.26881C22.5313 1.22506 22.3438 1.25631 22.1938 1.35631C22.0438 1.45631 21.9438 1.61881 21.925 1.80006C21.8063 2.77506 20.975 3.51256 19.9875 3.51256C19 3.51256 18.1688 2.77506 18.05 1.80006C18.0313 1.61881 17.9313 1.46256 17.7813 1.35631C17.6313 1.25631 17.45 1.22506 17.2688 1.26881C16.2625 1.53131 15.3 1.93131 14.4063 2.45631C14.25 2.55006 14.1438 2.70006 14.1125 2.88131C14.0813 3.05631 14.125 3.24381 14.2375 3.38131C14.8438 4.15631 14.775 5.26256 14.075 5.96256C13.3813 6.66256 12.275 6.73131 11.5 6.12506C11.3563 6.01256 11.175 5.96881 11 6.00006C10.825 6.03131 10.6688 6.14381 10.575 6.29381C10.05 7.18131 9.65002 8.14381 9.38752 9.15631C9.34377 9.33131 9.37502 9.51881 9.47502 9.66881C9.57502 9.81881 9.73752 9.91881 9.91877 9.93756C10.8938 10.0563 11.6313 10.8876 11.6313 11.8751C11.6313 12.8626 10.8938 13.6938 9.91877 13.8126H9.92502ZM10.7875 8.86256C10.9438 8.38756 11.1375 7.92506 11.3625 7.48131C12.5563 8.03756 14.0125 7.80631 14.975 6.83756C15.9438 5.87506 16.175 4.41881 15.6188 3.22506C16.0625 3.00006 16.525 2.80631 17 2.65006C17.45 3.88756 18.6438 4.75631 20.0125 4.75631C21.3813 4.75631 22.5688 3.88756 23.025 2.65006C23.5 2.80631 23.9625 3.00006 24.4063 3.22506C23.85 4.41881 24.0813 5.87506 25.05 6.83756C26.0125 7.80631 27.4688 8.03756 28.6625 7.48131C28.8875 7.92506 29.075 8.38756 29.2375 8.86256C28 9.31256 27.1313 10.5063 27.1313 11.8751C27.1313 13.2438 28 14.4313 29.2375 14.8876C29.0813 15.3626 28.8875 15.8251 28.6625 16.2688C27.4688 15.7126 26.0125 15.9438 25.05 16.9126C24.0813 17.8751 23.85 19.3313 24.4063 20.5251C23.9625 20.7501 23.5 20.9438 23.025 21.1001C22.575 19.8626 21.3813 18.9938 20.0125 18.9938C18.6438 18.9938 17.4563 19.8626 17 21.1001C16.525 20.9438 16.0625 20.7501 15.6188 20.5251C16.175 19.3313 15.9438 17.8751 14.975 16.9126C14.0125 15.9438 12.5563 15.7126 11.3625 16.2688C11.1375 15.8251 10.95 15.3626 10.7875 14.8876C12.025 14.4376 12.8938 13.2438 12.8938 11.8751C12.8938 10.5063 12.025 9.31881 10.7875 8.86256Z" fill="#0070FA"/>
<path d="M23.125 11.875C23.125 12.05 23.1125 12.225 23.0812 12.3875L24.3125 12.6188C24.3562 12.3813 24.3812 12.1313 24.3812 11.8813C24.3812 11.6313 24.3562 11.375 24.3125 11.1438L23.0812 11.375C23.1125 11.5375 23.125 11.7063 23.125 11.8875V11.875Z" fill="#0070FA"/>
<path d="M20 16.25C21.5563 16.25 23.0063 15.4125 23.7875 14.0625L22.7063 13.4375C22.15 14.4 21.1187 15 20.0062 15C18.2812 15 16.8813 13.6 16.8813 11.875C16.8813 10.15 18.2812 8.75 20.0062 8.75C21.1187 8.75 22.1563 9.35 22.7063 10.3125L23.7875 9.6875C23.0125 8.3375 21.5625 7.5 20 7.5C17.5875 7.5 15.625 9.4625 15.625 11.875C15.625 14.2875 17.5875 16.25 20 16.25Z" fill="#0070FA"/>
<path d="M19.325 12.1875L18.5687 11.4312L17.6875 12.3125L18.9375 13.5625C19.0562 13.6812 19.2125 13.7437 19.3813 13.7437H19.4188C19.5938 13.7312 19.7625 13.65 19.875 13.5125L22.375 10.3875L21.4 9.6062L19.3375 12.1875H19.325Z" fill="#0070FA"/>
</svg>
