<svg width="40" height="40" viewBox="0 0 40 40" fill="none" xmlns="http://www.w3.org/2000/svg">
<g clip-path="url(#clip0_7_1187)">
<path d="M18.6666 19.3274H16C15.8232 19.3274 15.6536 19.3976 15.5286 19.5227C15.4036 19.6477 15.3333 19.8172 15.3333 19.9941C15.3333 20.1709 15.4036 20.3404 15.5286 20.4655C15.6536 20.5905 15.8232 20.6607 16 20.6607H18.6666C18.8435 20.6607 19.013 20.5905 19.1381 20.4655C19.2631 20.3404 19.3333 20.1709 19.3333 19.9941C19.3333 19.8172 19.2631 19.6477 19.1381 19.5227C19.013 19.3976 18.8435 19.3274 18.6666 19.3274Z" fill="#0070FA"/>
<path d="M18 21.3274H16.6667C16.4899 21.3274 16.3203 21.3976 16.1953 21.5227C16.0702 21.6477 16 21.8172 16 21.9941C16 22.1709 16.0702 22.3404 16.1953 22.4655C16.3203 22.5905 16.4899 22.6607 16.6667 22.6607H18C18.1768 22.6607 18.3464 22.5905 18.4714 22.4655C18.5964 22.3404 18.6667 22.1709 18.6667 21.9941C18.6667 21.8172 18.5964 21.6477 18.4714 21.5227C18.3464 21.3976 18.1768 21.3274 18 21.3274Z" fill="#0070FA"/>
<path d="M15.3334 13.9941C15.3334 13.8172 15.2631 13.6477 15.1381 13.5227C15.0131 13.3976 14.8435 13.3274 14.6667 13.3274H13.3334C13.1565 13.3274 12.987 13.3976 12.8619 13.5227C12.7369 13.6477 12.6667 13.8172 12.6667 13.9941C12.6667 14.1709 12.7369 14.3404 12.8619 14.4655C12.987 14.5905 13.1565 14.6607 13.3334 14.6607C13.3334 14.8375 13.4036 15.0071 13.5286 15.1321C13.6536 15.2572 13.8232 15.3274 14 15.3274C14.1768 15.3274 14.3464 15.2572 14.4714 15.1321C14.5964 15.0071 14.6667 14.8375 14.6667 14.6607C14.8435 14.6607 15.0131 14.5905 15.1381 14.4655C15.2631 14.3404 15.3334 14.1709 15.3334 13.9941Z" fill="#0070FA"/>
<path d="M21.3333 13.3274H20C19.8232 13.3274 19.6536 13.3976 19.5286 13.5227C19.4036 13.6477 19.3333 13.8172 19.3333 13.9941C19.3333 14.1709 19.4036 14.3404 19.5286 14.4655C19.6536 14.5905 19.8232 14.6607 20 14.6607C20 14.8375 20.0702 15.0071 20.1952 15.1321C20.3203 15.2572 20.4898 15.3274 20.6666 15.3274C20.8435 15.3274 21.013 15.2572 21.1381 15.1321C21.2631 15.0071 21.3333 14.8375 21.3333 14.6607C21.5101 14.6607 21.6797 14.5905 21.8047 14.4655C21.9297 14.3404 22 14.1709 22 13.9941C22 13.8172 21.9297 13.6477 21.8047 13.5227C21.6797 13.3976 21.5101 13.3274 21.3333 13.3274Z" fill="#0070FA"/>
<path d="M16.6667 17.994H18C18.1768 17.994 18.3464 17.9237 18.4714 17.7987C18.5964 17.6737 18.6667 17.5041 18.6667 17.3273C18.6667 17.1505 18.5964 16.9809 18.4714 16.8559C18.3464 16.7309 18.1768 16.6606 18 16.6606H16.6667C16.4899 16.6606 16.3203 16.7309 16.1953 16.8559C16.0702 16.9809 16 17.1505 16 17.3273C16 17.5041 16.0702 17.6737 16.1953 17.7987C16.3203 17.9237 16.4899 17.994 16.6667 17.994Z" fill="#0070FA"/>
<path d="M15.3333 12.6607C15.5101 12.6607 15.6797 12.5905 15.8047 12.4655C15.9298 12.3404 16 12.1709 16 11.9941C16 11.8172 15.9298 11.6477 15.8047 11.5227C15.6797 11.3976 15.5101 11.3274 15.3333 11.3274H12.6667C12.4899 11.3274 12.3203 11.3976 12.1953 11.5227C12.0702 11.6477 12 11.8172 12 11.9941C12 12.1709 12.0702 12.3404 12.1953 12.4655C12.3203 12.5905 12.4899 12.6607 12.6667 12.6607H15.3333Z" fill="#0070FA"/>
<path d="M19.3334 12.6607H22C22.1768 12.6607 22.3464 12.5905 22.4714 12.4655C22.5965 12.3404 22.6667 12.1709 22.6667 11.9941C22.6667 11.8172 22.5965 11.6477 22.4714 11.5227C22.3464 11.3976 22.1768 11.3274 22 11.3274H19.3334C19.1565 11.3274 18.987 11.3976 18.8619 11.5227C18.7369 11.6477 18.6667 11.8172 18.6667 11.9941C18.6667 12.1709 18.7369 12.3404 18.8619 12.4655C18.987 12.5905 19.1565 12.6607 19.3334 12.6607Z" fill="#0070FA"/>
<path d="M1.33333 40H37.3333C38.0406 40 38.7189 39.719 39.219 39.219C39.719 38.7189 40 38.0406 40 37.3333V26C40 25.2928 39.719 24.6145 39.219 24.1144C38.7189 23.6143 38.0406 23.3333 37.3333 23.3333C37.3333 22.8029 37.1226 22.2942 36.7475 21.9191C36.3725 21.544 35.8638 21.3333 35.3333 21.3333C34.8029 21.3333 34.2942 21.544 33.9191 21.9191C33.544 22.2942 33.3333 22.8029 33.3333 23.3333H30.6667C30.6667 22.8029 30.456 22.2942 30.0809 21.9191C29.7058 21.544 29.1971 21.3333 28.6667 21.3333C28.1362 21.3333 27.6275 21.544 27.2525 21.9191C26.8774 22.2942 26.6667 22.8029 26.6667 23.3333C25.9594 23.3333 25.2811 23.6143 24.781 24.1144C24.281 24.6145 24 25.2928 24 26V26.808C23.646 26.7613 23.3533 26.728 23.1333 26.704C22.5909 25.4512 22.3926 24.0764 22.5587 22.7213L24.1893 21.2953C24.5479 20.983 24.8356 20.5975 25.0329 20.1648C25.2302 19.7321 25.3326 19.2622 25.3333 18.7867V17.9267C26.0851 17.7732 26.761 17.3651 27.2468 16.7712C27.7326 16.1773 27.9986 15.434 28 14.6667V8.66667C28 2.67867 22.6427 0 17.3333 0C12.8413 0 11.3373 1.832 10.8747 2.71267C9.698 2.90267 6.66667 3.86067 6.66667 8.66667V14.6667C6.66805 15.434 6.93409 16.1773 7.4199 16.7712C7.90571 17.3651 8.58154 17.7732 9.33333 17.9267V18.7867C9.3337 19.262 9.43573 19.7318 9.63258 20.1645C9.82943 20.5972 10.1165 20.9827 10.4747 21.2953L12.1053 22.7213C12.2714 24.0764 12.0731 25.4512 11.5307 26.704C9.84733 26.8827 4.09733 27.62 2.19733 29.522C0.380667 31.3367 0 35.4967 0 38.6667C0 39.0203 0.140476 39.3594 0.390524 39.6095C0.640573 39.8595 0.979711 40 1.33333 40ZM24 35.8773C23.6103 35.7416 23.2725 35.4879 23.0335 35.1515C22.7945 34.8151 22.666 34.4127 22.666 34C22.666 33.5873 22.7945 33.1849 23.0335 32.8485C23.2725 32.5121 23.6103 32.2584 24 32.1227V35.8773ZM37.3333 38.6667H26.6667C26.313 38.6667 25.9739 38.5262 25.7239 38.2761C25.4738 38.0261 25.3333 37.687 25.3333 37.3333V29.3333H38.6667V37.3333C38.6667 37.687 38.5262 38.0261 38.2761 38.2761C38.0261 38.5262 37.687 38.6667 37.3333 38.6667ZM34.6667 23.3333C34.6667 23.1565 34.7369 22.987 34.8619 22.8619C34.987 22.7369 35.1565 22.6667 35.3333 22.6667C35.5101 22.6667 35.6797 22.7369 35.8047 22.8619C35.9298 22.987 36 23.1565 36 23.3333V24.6667C36 24.8435 35.9298 25.013 35.8047 25.1381C35.6797 25.2631 35.5101 25.3333 35.3333 25.3333C35.1565 25.3333 34.987 25.2631 34.8619 25.1381C34.7369 25.013 34.6667 24.8435 34.6667 24.6667V23.3333ZM28 23.3333C28 23.1565 28.0702 22.987 28.1953 22.8619C28.3203 22.7369 28.4899 22.6667 28.6667 22.6667C28.8435 22.6667 29.013 22.7369 29.1381 22.8619C29.2631 22.987 29.3333 23.1565 29.3333 23.3333V24.6667C29.3333 24.8435 29.2631 25.013 29.1381 25.1381C29.013 25.2631 28.8435 25.3333 28.6667 25.3333C28.4899 25.3333 28.3203 25.2631 28.1953 25.1381C28.0702 25.013 28 24.8435 28 24.6667V23.3333ZM26.6667 24.6667C26.6667 25.1971 26.8774 25.7058 27.2525 26.0809C27.6275 26.456 28.1362 26.6667 28.6667 26.6667C29.1971 26.6667 29.7058 26.456 30.0809 26.0809C30.456 25.7058 30.6667 25.1971 30.6667 24.6667H33.3333C33.3333 25.1971 33.544 25.7058 33.9191 26.0809C34.2942 26.456 34.8029 26.6667 35.3333 26.6667C35.8638 26.6667 36.3725 26.456 36.7475 26.0809C37.1226 25.7058 37.3333 25.1971 37.3333 24.6667C37.687 24.6667 38.0261 24.8071 38.2761 25.0572C38.5262 25.3072 38.6667 25.6464 38.6667 26V28H25.3333V26C25.3333 25.6464 25.4738 25.3072 25.7239 25.0572C25.9739 24.8071 26.313 24.6667 26.6667 24.6667ZM11.3333 4C11.479 3.99729 11.62 3.94809 11.7357 3.85958C11.8515 3.77107 11.9359 3.64788 11.9767 3.508C12 3.41733 12.6667 1.33333 17.3333 1.33333C21.6387 1.33333 26.6667 3.25267 26.6667 8.66667V12.024C26.2638 11.715 25.7953 11.5026 25.2973 11.4033C25.2521 10.8582 25.0773 10.3317 24.7874 9.86788C24.4975 9.40401 24.1009 9.01617 23.6307 8.73667C23.5134 8.67657 23.3807 8.65333 23.25 8.67C19.6833 9.116 18.68 8.642 17.0187 7.85733C16.1088 7.41019 15.1706 7.02336 14.21 6.69933C13.7271 6.49881 13.2019 6.42167 12.6818 6.47486C12.1617 6.52805 11.663 6.7099 11.2307 7.004C9.78333 8.04667 9.43867 10.2987 9.35733 11.404C8.8639 11.5037 8.39969 11.7146 8 12.0207V8.66667C8 4.17267 10.996 4.00333 11.3333 4ZM10.6667 18.7867V17.3267C10.6667 17.1499 10.5964 16.9803 10.4714 16.8553C10.3464 16.7302 10.1768 16.66 10 16.66C9.52793 16.6649 9.06952 16.5017 8.70687 16.1994C8.34422 15.8971 8.10101 15.4757 8.0208 15.0104C7.94059 14.5452 8.02861 14.0666 8.26911 13.6604C8.50961 13.2541 8.88687 12.9468 9.33333 12.7933V13.9933C9.33333 14.1701 9.40357 14.3397 9.5286 14.4647C9.65362 14.5898 9.82319 14.66 10 14.66C10.1768 14.66 10.3464 14.5898 10.4714 14.4647C10.5964 14.3397 10.6667 14.1701 10.6667 13.9933V12.0067V12V11.994C10.6667 11.1733 10.9133 8.86933 12.012 8.07933C12.2762 7.89097 12.5942 7.793 12.9187 7.8C13.2155 7.80626 13.5095 7.86005 13.7893 7.95933C14.6989 8.26755 15.5874 8.63455 16.4493 9.058C18.1633 9.868 19.412 10.458 23.172 10.018C23.4548 10.2626 23.6768 10.5696 23.8205 10.9147C23.9642 11.2598 24.0256 11.6337 24 12.0067V13.9933C24 14.1701 24.0702 14.3397 24.1953 14.4647C24.3203 14.5898 24.4899 14.66 24.6667 14.66C24.8435 14.66 25.013 14.5898 25.1381 14.4647C25.2631 14.3397 25.3333 14.1701 25.3333 13.9933V12.7933C25.7798 12.9468 26.1571 13.2541 26.3976 13.6604C26.6381 14.0666 26.7261 14.5452 26.6459 15.0104C26.5657 15.4757 26.3224 15.8971 25.9598 16.1994C25.5971 16.5017 25.1387 16.6649 24.6667 16.66C24.4899 16.66 24.3203 16.7302 24.1953 16.8553C24.0702 16.9803 24 17.1499 24 17.3267V18.7867C23.9996 19.0718 23.9383 19.3536 23.8201 19.6131C23.7019 19.8727 23.5296 20.1039 23.3147 20.2913L19.648 23.4987C19.2846 23.8176 18.8175 23.9934 18.334 23.9933H16.334C15.8502 23.9934 15.3829 23.8173 15.0193 23.498L11.3527 20.2913C11.1376 20.1039 10.9652 19.8727 10.8469 19.6132C10.7286 19.3537 10.6671 19.0719 10.6667 18.7867ZM14.1407 24.5013C14.7473 25.0332 15.5266 25.3265 16.3333 25.3267H18.3333C19.1398 25.3266 19.9188 25.0335 20.5253 24.502L21.1747 23.934C21.2163 25.0584 21.4588 26.1663 21.8907 27.2053C21.4 27.6827 20.0667 28.6607 17.3333 28.6607C14.6 28.6607 13.26 27.68 12.776 27.206C13.2079 26.1665 13.4504 25.0582 13.492 23.9333L14.1407 24.5013ZM3.138 30.4667C4.04333 29.562 6.38667 28.9153 8.538 28.504C8.28268 28.9877 8.11541 29.513 8.044 30.0553C7.10379 30.2035 6.24722 30.6821 5.62819 31.4051C5.00915 32.1281 4.66823 33.0482 4.66667 34V36C4.66667 36.3536 4.80714 36.6928 5.05719 36.9428C5.30724 37.1929 5.64638 37.3333 6 37.3333H6.66667C6.84348 37.3333 7.01305 37.2631 7.13807 37.1381C7.2631 37.0131 7.33333 36.8435 7.33333 36.6667C7.33333 36.4899 7.2631 36.3203 7.13807 36.1953C7.01305 36.0702 6.84348 36 6.66667 36H6V34C6 33.2928 6.28095 32.6145 6.78105 32.1144C7.28115 31.6143 7.95942 31.3333 8.66667 31.3333C9.37391 31.3333 10.0522 31.6143 10.5523 32.1144C11.0524 32.6145 11.3333 33.2928 11.3333 34V36H10.6667C10.4899 36 10.3203 36.0702 10.1953 36.1953C10.0702 36.3203 10 36.4899 10 36.6667C10 36.8435 10.0702 37.0131 10.1953 37.1381C10.3203 37.2631 10.4899 37.3333 10.6667 37.3333H11.3333C11.687 37.3333 12.0261 37.1929 12.2761 36.9428C12.5262 36.6928 12.6667 36.3536 12.6667 36V34C12.6659 33.0652 12.3381 32.1601 11.74 31.4417C11.1419 30.7233 10.3112 30.2368 9.392 30.0667C9.52328 29.3361 9.8978 28.6714 10.4547 28.1807C10.932 28.114 11.362 28.06 11.7213 28.0227C12.3213 28.6573 13.98 29.9913 17.3353 29.9913C20.6907 29.9913 22.3487 28.658 22.9493 28.0227C23.1927 28.0487 23.5593 28.0893 24.002 28.15V30.7333C23.2485 30.8863 22.571 31.2952 22.0844 31.8905C21.5978 32.4858 21.332 33.2311 21.332 34C21.332 34.7689 21.5978 35.5142 22.0844 36.1095C22.571 36.7048 23.2485 37.1137 24.002 37.2667V37.3333C24.0048 37.8028 24.1327 38.2631 24.3727 38.6667H1.33333C1.33333 34.6 1.99133 31.612 3.138 30.4667Z" fill="#0070FA"/>
<path d="M35.3333 30.6667H28.6666C28.313 30.6667 27.9739 30.8072 27.7238 31.0573C27.4738 31.3073 27.3333 31.6465 27.3333 32.0001V36.0001C27.3333 36.3537 27.4738 36.6928 27.7238 36.9429C27.9739 37.1929 28.313 37.3334 28.6666 37.3334H35.3333C35.6869 37.3334 36.0261 37.1929 36.2761 36.9429C36.5262 36.6928 36.6666 36.3537 36.6666 36.0001V32.0001C36.6666 31.6465 36.5262 31.3073 36.2761 31.0573C36.0261 30.8072 35.6869 30.6667 35.3333 30.6667ZM35.3333 33.3334H32.6666V32.0001H35.3333V33.3334ZM31.3333 32.0001V33.3334H28.6666V32.0001H31.3333ZM28.6666 34.6667H31.3333V36.0001H28.6666V34.6667ZM32.6666 36.0001V34.6667H35.3333V36.0001H32.6666Z" fill="#0070FA"/>
</g>
<defs>
<clipPath id="clip0_7_1187">
<rect width="40" height="40" fill="white"/>
</clipPath>
</defs>
</svg>
