<svg width="37" height="37" viewBox="0 0 37 37" fill="none" xmlns="http://www.w3.org/2000/svg">
<path d="M11.1556 10.0305C13.3109 10.0305 15.0645 8.27694 15.0645 6.12162C15.0645 3.9663 13.3109 2.21277 11.1556 2.21277C9.0003 2.21277 7.24677 3.9663 7.24677 6.12162C7.24677 8.27702 9.0003 10.0305 11.1556 10.0305ZM11.1556 3.36902C12.6734 3.36902 13.9082 4.60383 13.9082 6.12162C13.9082 7.63942 12.6734 8.87422 11.1556 8.87422C9.63783 8.87422 8.40302 7.63942 8.40302 6.12162C8.40302 4.60383 9.63783 3.36902 11.1556 3.36902ZM11.6326 7.03506C11.6422 7.02393 11.6498 7.01519 11.6444 6.97096C11.6384 6.9216 11.6201 6.77129 11.065 6.68016C9.85412 6.48129 9.64043 5.77157 9.62084 5.36623C9.59071 4.74785 9.96844 4.22277 10.5776 4.00727C10.5812 3.69111 10.8385 3.43587 11.1556 3.43587C11.4703 3.43587 11.7262 3.68721 11.7336 4.00005C12.1475 4.1466 12.4889 4.45655 12.6692 4.88602C12.7929 5.18043 12.6544 5.51929 12.3601 5.64286C12.0659 5.76644 11.7269 5.62812 11.6032 5.33364C11.4864 5.05556 11.1884 5.04212 11.031 5.07774C10.9691 5.09176 10.7678 5.15001 10.7756 5.31008C10.7823 5.44724 11.1112 5.51596 11.2524 5.53916C12.4187 5.73066 12.7335 6.34774 12.7922 6.83163C12.8361 7.19318 12.7375 7.52502 12.5071 7.79146C12.3204 8.00732 12.0476 8.16927 11.7331 8.25844C11.7178 8.5642 11.4652 8.80737 11.1557 8.80737C10.8426 8.80737 10.5876 8.55842 10.5779 8.24768C10.053 8.07973 9.65784 7.68509 9.52625 7.15733C9.44907 6.84753 9.63761 6.53382 9.94741 6.45657C10.2574 6.37947 10.571 6.56793 10.6482 6.87774C10.7241 7.18241 11.1386 7.18132 11.1854 7.18024C11.3987 7.17518 11.575 7.10161 11.6326 7.03506ZM12.56 18.8907H9.7351C9.41583 18.8907 9.15697 19.1495 9.15697 19.4688V28.4853C9.15697 28.8046 9.41583 29.0634 9.7351 29.0634H12.56C12.8792 29.0634 13.1381 28.8046 13.1381 28.4853V19.4688C13.1381 19.1495 12.8792 18.8907 12.56 18.8907ZM11.9818 27.9072H10.3132V20.0469H11.9818V27.9072ZM7.31463 22.3882H4.48977C4.1705 22.3882 3.91164 22.647 3.91164 22.9663V28.4853C3.91164 28.8046 4.1705 29.0634 4.48977 29.0634H7.31463C7.6339 29.0634 7.89276 28.8046 7.89276 28.4853V22.9663C7.89276 22.647 7.6339 22.3882 7.31463 22.3882ZM6.73651 27.9071H5.06789V23.5444H6.73651V27.9071ZM16.2328 16.9958L20.1162 13.0791L19.9811 13.091C19.6633 13.119 19.3826 12.8836 19.3547 12.5655C19.3268 12.2475 19.562 11.967 19.8801 11.9391L21.5876 11.7894C21.7607 11.7742 21.9306 11.8374 22.0518 11.9614C22.1729 12.0854 22.2319 12.2573 22.2127 12.4295L22.0223 14.133C21.9893 14.4285 21.739 14.6469 21.4485 14.6469C21.427 14.6469 21.4053 14.6458 21.3836 14.6433C21.0663 14.6078 20.8378 14.3219 20.8733 14.0046L20.8791 13.952L16.8035 18.0625C16.65 18.2174 16.4225 18.2727 16.2148 18.2054L11.261 16.5999L6.25753 20.4959C6.15195 20.5781 6.02693 20.6179 5.90278 20.6179C5.73057 20.6179 5.56024 20.5413 5.4462 20.3949C5.25007 20.143 5.29524 19.7798 5.54716 19.5836L10.7925 15.4993C10.9438 15.3816 11.1433 15.3463 11.326 15.4055L16.2328 16.9958ZM3.91164 14.0392C3.91164 13.7199 4.1705 13.4611 4.48977 13.4611H5.47605C5.79532 13.4611 6.05417 13.7199 6.05417 14.0392C6.05417 14.3585 5.79532 14.6173 5.47605 14.6173H4.48977C4.1705 14.6173 3.91164 14.3585 3.91164 14.0392ZM6.94904 14.0392C6.94904 13.7199 7.20789 13.4611 7.52716 13.4611H15.202C15.5213 13.4611 15.7801 13.7199 15.7801 14.0392C15.7801 14.3585 15.5213 14.6173 15.202 14.6173H7.52716C7.20789 14.6173 6.94904 14.3585 6.94904 14.0392ZM3.91164 11.3017C3.91164 10.9824 4.1705 10.7236 4.48977 10.7236H5.47605C5.79532 10.7236 6.05417 10.9824 6.05417 11.3017C6.05417 11.621 5.79532 11.8798 5.47605 11.8798H4.48977C4.1705 11.8798 3.91164 11.621 3.91164 11.3017ZM6.94904 11.3017C6.94904 10.9824 7.20789 10.7236 7.52716 10.7236H15.202C15.5213 10.7236 15.7801 10.9824 15.7801 11.3017C15.7801 11.621 15.5213 11.8798 15.202 11.8798H7.52716C7.20789 11.8798 6.94904 11.621 6.94904 11.3017ZM35.0333 25.6423L33.9007 25.2064C33.7317 24.6023 33.4911 24.0221 33.1828 23.4748L33.6758 22.3651C33.7728 22.1465 33.7253 21.8907 33.5562 21.7216L31.9274 20.0928C31.7583 19.9237 31.5026 19.8762 31.284 19.9732L30.1738 20.4663C29.6264 20.1581 29.0463 19.9176 28.4427 19.7487L28.0067 18.6158C27.9208 18.3926 27.7063 18.2453 27.4671 18.2453H25.9441V5.16475C25.9441 4.84389 25.8242 4.5544 25.5973 4.32748L22.1947 0.924928C21.9677 0.698014 21.6782 0.578125 21.3575 0.578125H2.7804C2.12748 0.578125 1.59625 1.10935 1.59625 1.76227V30.6087C1.59625 31.2616 2.12748 31.7928 2.7804 31.7928H19.1814L18.9551 32.3022C18.8581 32.5208 18.9055 32.7765 19.0746 32.9456L20.7034 34.5744C20.8726 34.7435 21.1282 34.7911 21.3469 34.6939L22.4571 34.2009C23.0044 34.5091 23.5844 34.7495 24.1881 34.9185L24.6241 36.0514C24.71 36.2746 24.9245 36.4219 25.1637 36.4219H27.4671C27.7063 36.4219 27.9207 36.2746 28.0067 36.0514L28.4426 34.9189C29.0466 34.7499 29.6269 34.5094 30.1742 34.201L31.2839 34.6939C31.5024 34.7911 31.7582 34.7436 31.9274 34.5744L33.5562 32.9456C33.7253 32.7765 33.7727 32.5208 33.6757 32.3022L33.1826 31.1919C33.4908 30.6446 33.7313 30.0645 33.9003 29.4609L35.0332 29.0248C35.2564 28.939 35.4036 28.7245 35.4036 28.4853V26.1818C35.4037 25.9427 35.2564 25.7282 35.0333 25.6423ZM23.9702 4.33558H22.1866V2.55206L23.9702 4.33558ZM2.7525 30.6087V1.76227C2.7525 1.74767 2.7658 1.73438 2.7804 1.73438H21.0304V4.61076C21.0304 5.09661 21.4257 5.49183 21.9115 5.49183H24.7879V18.3858C24.7168 18.4468 24.6594 18.5244 24.6242 18.6158L24.1882 19.7487C23.9992 19.8016 23.8128 19.8624 23.6287 19.9291V15.7633C23.6287 15.444 23.3698 15.1852 23.0505 15.1852H20.2257C19.9064 15.1852 19.6476 15.444 19.6476 15.7633V21.1487L19.0746 21.7216C18.9055 21.8907 18.8581 22.1465 18.9551 22.3651L19.4481 23.4751C19.1399 24.0224 18.8994 24.6026 18.7304 25.2063L18.3833 25.3399V20.6461C18.3833 20.3269 18.1245 20.068 17.8052 20.068H14.9804C14.6611 20.068 14.4022 20.3269 14.4022 20.6461V28.4853C14.4022 28.8046 14.6611 29.0634 14.9804 29.0634H17.6978L18.7301 29.4607C18.8431 29.8643 18.9887 30.257 19.1643 30.6366H2.7804C2.76573 30.6366 2.7525 30.6233 2.7525 30.6087ZM22.4724 20.458C22.4674 20.4609 22.4622 20.4635 22.4572 20.4663L21.3469 19.9732C21.1678 19.8937 20.9647 19.9126 20.8038 20.0145V16.3414H22.4724V20.458ZM17.2272 27.9072H15.5585V21.2243H17.2272V27.9072ZM34.2475 28.0883L33.2076 28.4886C33.0298 28.557 32.897 28.7087 32.8529 28.8943C32.6883 29.5859 32.4152 30.2445 32.0414 30.8517C31.9415 31.0141 31.928 31.2152 32.0053 31.3894L32.458 32.4087L31.3906 33.4761L30.3718 33.0237C30.1977 32.9463 29.9963 32.9598 29.834 33.0598C29.2269 33.4337 28.5682 33.7068 27.8761 33.8714C27.6906 33.9155 27.5388 34.0482 27.4704 34.2262L27.0702 35.2656H25.5607L25.1605 34.2258C25.092 34.0479 24.9402 33.9152 24.7549 33.871C24.0631 33.7064 23.4045 33.4334 22.7973 33.0595C22.635 32.9595 22.4337 32.9461 22.2596 33.0234L21.2404 33.4761L20.1729 32.4087L20.6255 31.3899C20.7028 31.2156 20.6893 31.0145 20.5893 30.8521C20.2154 30.245 19.9423 29.5862 19.7776 28.8941C19.7336 28.7087 19.6009 28.5568 19.4229 28.4884L18.3834 28.0883V26.5788L19.4232 26.1786C19.6011 26.1101 19.7338 25.9584 19.7779 25.7729C19.9425 25.0811 20.2156 24.4225 20.5894 23.8153C20.6894 23.6529 20.7029 23.4517 20.6255 23.2775L20.1729 22.2584L21.2404 21.191L22.2596 21.6436C22.4337 21.7209 22.635 21.7075 22.7973 21.6075C23.4046 21.2336 24.0632 20.9605 24.7547 20.796C24.9401 20.7519 25.092 20.6192 25.1604 20.4413L25.5607 19.4014H27.0702L27.4705 20.4413C27.5389 20.6191 27.6907 20.7519 27.8762 20.796C28.5676 20.9606 29.2263 21.2336 29.8336 21.6076C29.9961 21.7076 30.1973 21.7209 30.3713 21.6436L31.3906 21.191L32.458 22.2584L32.0055 23.2771C31.9282 23.4514 31.9416 23.6526 32.0416 23.815C32.4156 24.4221 32.6886 25.0809 32.8533 25.7729C32.8974 25.9583 33.0301 26.1101 33.208 26.1786L34.2475 26.5787V28.0883ZM26.3154 22.7383C23.7816 22.7383 21.7201 24.7998 21.7201 27.3335C21.7201 29.8673 23.7815 31.9288 26.3154 31.9288C28.8492 31.9288 30.9107 29.8673 30.9107 27.3335C30.9107 24.7998 28.8493 22.7383 26.3154 22.7383ZM26.3154 30.7726C24.4192 30.7726 22.8764 29.2299 22.8764 27.3336C22.8764 25.4374 24.4192 23.8946 26.3154 23.8946C28.2117 23.8946 29.7544 25.4374 29.7544 27.3336C29.7544 29.2299 28.2118 30.7726 26.3154 30.7726Z" fill="#0070FA"/>
</svg>
