<svg width="21" height="21" viewBox="0 0 21 21" fill="none" xmlns="http://www.w3.org/2000/svg">
<path d="M10.4098 1.08434C9.65853 1.08434 8.98688 1.32452 8.26178 1.73142C7.55921 2.12568 6.75416 2.70777 5.74183 3.43973L4.43278 4.38622C3.62036 4.97362 2.97147 5.44278 2.48205 5.87702C1.97671 6.32538 1.59866 6.77236 1.35885 7.3346C1.11852 7.89807 1.0604 8.4756 1.09264 9.14149C1.12375 9.78413 1.24291 10.5595 1.39149 11.5263L1.66497 13.3059C1.87609 14.6798 2.0442 15.7738 2.29117 16.6261C2.54655 17.5074 2.9063 18.2071 3.54932 18.7419C4.18966 19.2745 4.95245 19.5118 5.88426 19.6249C6.79071 19.735 7.93417 19.735 9.37847 19.735H11.4412C12.8855 19.735 14.0289 19.735 14.9354 19.6249C15.8672 19.5118 16.63 19.2745 17.2703 18.7419C17.9133 18.2071 18.2731 17.5074 18.5285 16.6261C18.7754 15.7738 18.9435 14.6798 19.1547 13.3059L19.4282 11.5262C19.5767 10.5594 19.6959 9.78411 19.727 9.14149C19.7592 8.4756 19.7011 7.89807 19.4608 7.3346C19.221 6.77236 18.8429 6.32538 18.3376 5.87702C17.8482 5.44278 17.1993 4.97363 16.3869 4.38623L15.0778 3.43974C14.0655 2.70778 13.2604 2.12568 12.5579 1.73142C11.8328 1.32452 11.1611 1.08434 10.4098 1.08434Z" fill="#F2F5F9"/>
<path fill-rule="evenodd" clip-rule="evenodd" d="M7.12292 14.2142C7.41721 13.8362 7.96225 13.7683 8.3403 14.0625C8.87881 14.4817 9.60158 14.7471 10.4099 14.7471C11.2182 14.7471 11.9409 14.4817 12.4794 14.0625C12.8575 13.7683 13.4025 13.8362 13.6968 14.2142C13.9911 14.5923 13.9232 15.1373 13.5451 15.4316C12.6965 16.0922 11.5972 16.482 10.4099 16.482C9.22256 16.482 8.12323 16.0922 7.2746 15.4316C6.89655 15.1373 6.82864 14.5923 7.12292 14.2142Z" fill="#0070FA"/>
</svg>
