<svg width="35" height="35" viewBox="0 0 35 35" fill="none" xmlns="http://www.w3.org/2000/svg">
<g clip-path="url(#clip0_7_1167)">
<path d="M34.5131 24.3081V13.1113C34.5131 12.0704 33.6614 11.2187 32.6204 11.2187H24.7253C24.7093 10.7987 24.6774 10.3893 24.6136 10.0118C24.5764 9.78845 24.4063 9.61304 24.183 9.57585L22.3753 9.25682C22.2052 8.62415 21.9553 7.99155 21.6204 7.36942L22.6305 5.89675C22.7536 5.71731 22.7572 5.4773 22.6306 5.30031C21.9627 4.36687 21.111 3.53049 20.1136 2.81839C19.9307 2.68782 19.6814 2.69247 19.4991 2.82372L18.1327 3.80728C17.5425 3.47765 16.9311 3.22246 16.3091 3.04172L16.038 1.40417C16.0015 1.18412 15.8287 1.00598 15.6086 0.970157C14.3825 0.770753 13.1887 0.781622 12.065 0.981027C11.8497 1.01924 11.6839 1.19403 11.6464 1.4095L11.3646 3.03112C10.7373 3.2172 10.1258 3.47245 9.54108 3.79668L8.18537 2.81313C8.00333 2.68106 7.75375 2.67648 7.5711 2.80759C6.58016 3.51873 5.72929 4.34855 5.04556 5.2861C4.9152 5.46479 4.91766 5.70938 5.04323 5.89142L6.04812 7.34816C5.71849 7.95956 5.45797 8.59223 5.28256 9.22489L3.49619 9.5332C3.28339 9.5699 3.10525 9.72822 3.06382 9.94014C2.98698 10.3332 2.94891 10.7649 2.92731 11.2186H2.37961C1.33864 11.2186 0.486877 12.0703 0.486877 13.1113V32.267C0.486877 33.309 1.33754 34.1597 2.37961 34.1597C4.99538 34.1916 30.0099 34.1597 32.6257 34.1597C33.6677 34.1597 34.5131 33.309 34.5131 32.267V28.4125C34.5131 28.1189 34.2751 27.8809 33.9815 27.8809C33.6879 27.8809 33.4498 28.1189 33.4498 28.4125V32.2724C33.4498 32.7275 33.0809 33.0965 32.6258 33.0965H29.2497V19.0818L30.43 20.1878C30.6373 20.3898 30.9776 20.3792 31.1796 20.1665C31.3816 19.9539 31.371 19.6135 31.153 19.4116C31.0361 19.2999 29.2018 17.5721 29.0849 17.4657C28.8935 17.2849 28.5639 17.2689 28.3565 17.4657C28.2981 17.5189 26.283 19.4116 26.283 19.4116C26.0704 19.6135 26.0597 19.9539 26.2618 20.1665C26.4585 20.3792 26.7987 20.3898 27.0114 20.1878L28.1864 19.0818V33.0964H25.443V22.6865C25.443 22.3929 25.205 22.1549 24.9114 22.1549H21.865C21.5726 22.1549 21.3334 22.3941 21.3334 22.6865V33.0964H19.5576V24.8398C19.5576 24.5461 19.3196 24.3081 19.026 24.3081H15.9849C15.6913 24.3081 15.4533 24.5461 15.4533 24.8398V33.0964H13.6774V26.9877C13.6774 26.6899 13.4381 26.456 13.1457 26.456H10.0994C9.807 26.456 9.56774 26.69 9.56774 26.9877V33.0964H7.79197V29.1355C7.79197 28.8431 7.55271 28.6039 7.26033 28.6039H4.2139C3.92146 28.6039 3.68227 28.8431 3.68227 29.1355V33.0964H2.37961C1.92154 33.0964 1.55021 32.7251 1.55021 32.267V13.1113C1.55021 12.6533 1.92154 12.2819 2.37961 12.2819H2.92724C2.94317 12.67 2.97509 13.0687 3.03887 13.4887C3.07606 13.7121 3.2462 13.8875 3.46953 13.9247L5.27716 14.249C5.46857 14.9136 5.72375 15.541 6.04272 16.1258L5.01664 17.609C4.88902 17.7952 4.88902 18.045 5.02724 18.2311C5.73968 19.1881 6.58501 20.0121 7.54198 20.6821C7.72272 20.8096 7.97264 20.8096 8.15338 20.6767L9.51975 19.6932C10.0886 20.0175 10.7053 20.2833 11.338 20.4641L11.6198 22.0963C11.658 22.3178 11.8325 22.4963 12.0544 22.532C13.2777 22.729 14.4531 22.7131 15.5594 22.5322C15.7827 22.495 15.9581 22.3196 16.0006 22.0963L16.2771 20.4801C16.9151 20.2939 17.5318 20.0334 18.1113 19.7038L19.4936 20.6927C19.6744 20.8255 19.9242 20.8256 20.1103 20.698C21.0992 20.0015 21.9445 19.1775 22.6198 18.2577C22.7527 18.0716 22.758 17.8271 22.6305 17.641L21.6097 16.1523C21.9234 15.5676 22.1732 14.9401 22.3646 14.2703L24.1722 13.9567C24.3955 13.9141 24.571 13.7387 24.6029 13.5153C24.672 13.1006 24.7039 12.6859 24.7252 12.2819H32.6256C33.0808 12.2819 33.4497 12.6509 33.4497 13.106V24.3081C33.4497 24.6017 33.6877 24.8397 33.9813 24.8397C34.2751 24.8397 34.5131 24.6017 34.5131 24.3081ZM22.3966 23.2182H24.3797V33.0965H22.3966V23.2182ZM16.5165 25.3714H18.4942V33.0965H16.5165V25.3714ZM10.631 27.5194H12.6141V33.0965H10.631V27.5194ZM4.74553 29.6672H6.72864V33.0965H4.74553V29.6672ZM23.6088 12.9731L21.849 13.2815C21.6416 13.3187 21.4768 13.473 21.4236 13.6803C21.2216 14.4938 20.9185 15.2433 20.5198 15.9186C20.4082 16.1047 20.4241 16.3386 20.557 16.5141L21.5353 17.9229C21.0408 18.5396 20.4613 19.1032 19.7968 19.6083L18.4464 18.6354C18.2709 18.5078 18.0317 18.5025 17.8509 18.6195C17.1811 19.0394 16.4527 19.3478 15.6871 19.5339C15.4797 19.5871 15.3255 19.7518 15.2883 19.9592L15.0171 21.5383C14.2143 21.6339 13.4009 21.6339 12.5981 21.5329L12.3269 19.9539C12.2897 19.7412 12.1355 19.5763 11.9335 19.5232C11.1786 19.3371 10.4289 19.0235 9.77493 18.6088C9.58886 18.4918 9.35493 18.5024 9.17946 18.63L7.84501 19.587C7.20701 19.1032 6.62746 18.5343 6.11183 17.8963L7.10072 16.4661C7.22301 16.296 7.23361 16.0674 7.12731 15.8866C6.72857 15.2114 6.4202 14.4618 6.2182 13.659C6.17034 13.457 6.00553 13.3028 5.7982 13.2655L4.03842 12.9466C3.98524 12.5372 3.96398 12.1438 3.96931 11.7556C3.96931 11.2984 3.9959 10.8944 4.04908 10.517L5.80353 10.2138C6.01619 10.1819 6.18634 10.0224 6.23419 9.80978C6.40434 9.06015 6.70738 8.31045 7.13271 7.59281C7.23907 7.41734 7.23374 7.19407 7.11671 7.0186L6.13849 5.60438C6.63826 4.98231 7.21775 4.41349 7.877 3.90312L9.20085 4.86008C9.371 4.98771 9.60492 4.9983 9.78567 4.88667C10.4662 4.47194 11.2158 4.1583 11.9602 3.97223C12.1675 3.92431 12.3217 3.75956 12.3589 3.5469L12.6301 1.96786C13.3957 1.8669 14.2145 1.86156 15.0545 1.96253L15.315 3.55749C15.3522 3.76483 15.5117 3.93497 15.7191 3.98282C16.458 4.16357 17.1917 4.47194 17.8882 4.89727C18.069 5.00357 18.303 4.99823 18.473 4.87068L19.8075 3.91364C20.4668 4.42408 21.0462 4.9929 21.5354 5.61497L20.5571 7.03986C20.4402 7.20993 20.4348 7.42793 20.5359 7.60867C20.9612 8.34238 21.2589 9.092 21.4237 9.83637C21.4662 10.0436 21.6364 10.2085 21.849 10.2458L23.6142 10.5541C23.662 10.9422 23.6833 11.3516 23.6833 11.7822C23.6832 12.1703 23.6567 12.569 23.6088 12.9731Z" fill="#0070FA"/>
<path d="M10.3309 11.7422C10.3267 12.6747 10.6871 13.5517 11.3449 14.2131C12.0053 14.8761 12.8848 15.2416 13.8179 15.2416H13.8339C14.7638 15.2416 15.6381 14.8808 16.297 14.2251C16.9594 13.5657 17.3239 12.6877 17.3239 11.7521C17.3239 9.82019 15.7554 8.24854 13.8276 8.24854C11.8994 8.24854 10.3309 9.81704 10.3309 11.7422ZM13.8278 9.31187C15.1694 9.31187 16.2607 10.4064 16.2607 11.7521C16.2607 12.4027 16.0074 13.0133 15.5469 13.4717C15.0889 13.9276 14.4809 14.1783 13.8319 14.1783C13.8278 14.1783 13.8241 14.1783 13.8205 14.1783C13.1695 14.1783 12.5579 13.9239 12.0989 13.4629C11.6415 13.0033 11.3912 12.3943 11.3943 11.7448C11.3942 10.4032 12.4861 9.31187 13.8278 9.31187Z" fill="#0070FA"/>
<path d="M17.6247 16.1125C17.84 16.3181 18.1761 16.3052 18.3765 16.0959C18.6516 15.8078 18.9009 15.4926 19.1169 15.1582C19.2763 14.9116 19.2057 14.5824 18.959 14.423C18.7119 14.2636 18.3833 14.3348 18.2238 14.5808C18.0442 14.8591 17.8371 15.1214 17.6081 15.3607C17.405 15.573 17.4123 15.9095 17.6247 16.1125Z" fill="#0070FA"/>
<path d="M18.6734 9.79575C18.7817 10.0659 19.0901 10.2006 19.365 10.0906C19.6375 9.98107 19.7695 9.67167 19.6599 9.39906C19.512 9.03039 19.3266 8.67322 19.1095 8.3373C18.9501 8.09066 18.6215 8.01902 18.3743 8.17946C18.1277 8.33887 18.0571 8.66802 18.2165 8.91466C18.3967 9.1935 18.5503 9.48997 18.6734 9.79575Z" fill="#0070FA"/>
<path d="M19.0524 11.7589C19.0524 12.0917 19.0212 12.4245 18.9589 12.7485C18.9039 13.0366 19.0929 13.3155 19.3815 13.3705C19.6768 13.425 19.9492 13.2316 20.0035 12.9479C20.0778 12.5585 20.1157 12.1582 20.1157 11.7589V11.7351C20.1157 11.4412 19.8779 11.2153 19.5841 11.2153C19.2902 11.2153 19.0524 11.465 19.0524 11.7589Z" fill="#0070FA"/>
<path d="M15.9897 6.9874C16.2898 7.12399 16.5795 7.29112 16.8506 7.48431C17.0886 7.65363 17.4211 7.59881 17.592 7.35866C17.7618 7.11934 17.7057 6.78752 17.4663 6.61724C17.1408 6.3857 16.7924 6.18473 16.431 6.01964C16.1626 5.89864 15.8485 6.01547 15.7264 6.28289C15.605 6.54977 15.7223 6.86545 15.9897 6.9874Z" fill="#0070FA"/>
<path d="M13.079 16.9178C12.7509 16.8715 12.4259 16.7931 12.1133 16.6862C11.8324 16.5902 11.5323 16.7387 11.4379 17.0159C11.3423 17.2937 11.4898 17.5964 11.7675 17.6914C12.1439 17.8206 12.535 17.9146 12.9295 17.9707C13.2186 18.012 13.489 17.8107 13.5307 17.519C13.5718 17.2282 13.3698 16.9588 13.079 16.9178Z" fill="#0070FA"/>
<path d="M8.15233 10.6412C8.43186 10.7227 8.72922 10.5636 8.81173 10.2798C8.90415 9.96259 9.02822 9.65264 9.17984 9.35774C9.31383 9.09709 9.21102 8.77621 8.94981 8.64175C8.69073 8.50728 8.36828 8.61057 8.23382 8.87178C8.05157 9.22636 7.90255 9.60021 7.79092 9.98179C7.70896 10.2638 7.87042 10.5592 8.15233 10.6412Z" fill="#0070FA"/>
<path d="M8.44723 13.8845C8.72915 13.8025 8.89116 13.5076 8.80913 13.2257C8.71671 12.908 8.65491 12.5803 8.62531 12.2512C8.59885 11.9594 8.35016 11.7392 8.04795 11.7694C7.75564 11.7958 7.54017 12.0539 7.56615 12.3467C7.60197 12.7434 7.67675 13.1396 7.78838 13.5227C7.87117 13.8078 8.16997 13.9663 8.44723 13.8845Z" fill="#0070FA"/>
<path d="M12.9991 6.57994C13.024 6.57994 13.0495 6.57837 13.0754 6.57475C13.4015 6.52751 13.7389 6.5109 14.0675 6.52594C14.3406 6.54569 14.6096 6.31409 14.6236 6.01974C14.6376 5.72689 14.4107 5.47772 14.1174 5.4637C13.7254 5.44449 13.3163 5.46575 12.9238 5.52188C12.633 5.56392 12.4316 5.83339 12.4731 6.12412C12.5116 6.38888 12.739 6.57994 12.9991 6.57994Z" fill="#0070FA"/>
<path d="M8.87928 15.6384C9.12537 15.9509 9.40312 16.2417 9.70533 16.5033C9.92764 16.6946 10.2626 16.6713 10.4556 16.4488C10.6472 16.2266 10.6233 15.8907 10.4011 15.6986C10.1498 15.4815 9.9193 15.2402 9.71524 14.9811C9.53354 14.75 9.19913 14.7111 8.96862 14.8918C8.7375 15.0735 8.69806 15.4079 8.87928 15.6384Z" fill="#0070FA"/>
<path d="M10.4015 7.80173C10.6512 7.58469 10.9228 7.39001 11.2099 7.2228C11.4638 7.07535 11.5495 6.74982 11.402 6.49593C11.254 6.24205 10.9285 6.15639 10.6751 6.30384C10.3304 6.50427 10.0039 6.7384 9.70376 6.99906C9.48207 7.19217 9.45869 7.52761 9.65133 7.7493C9.8441 7.97058 10.1791 7.9943 10.4015 7.80173Z" fill="#0070FA"/>
<path d="M15.9959 16.5044C15.6953 16.641 15.3791 16.7495 15.0567 16.8268C14.7711 16.8954 14.5951 17.1825 14.6636 17.468C14.7323 17.7537 15.0191 17.9289 15.3048 17.8611C15.6927 17.7677 16.0732 17.6374 16.4351 17.4732C16.7025 17.3518 16.8209 17.0366 16.6999 16.7692C16.5785 16.5023 16.2633 16.3834 15.9959 16.5044Z" fill="#0070FA"/>
</g>
<defs>
<clipPath id="clip0_7_1167">
<rect width="35" height="35" fill="white"/>
</clipPath>
</defs>
</svg>
