<svg width="41" height="41" viewBox="0 0 41 41" fill="none" xmlns="http://www.w3.org/2000/svg">
<g clip-path="url(#clip0_7_1247)">
<path d="M20.5 32.0313C19.808 32.0298 19.1175 31.9655 18.4372 31.8391C18.3049 31.8151 18.1836 31.7501 18.0904 31.6532C17.9971 31.5564 17.9367 31.4328 17.9176 31.2997L17.5864 28.9813C17.2364 28.8624 16.894 28.7218 16.5614 28.5604L14.6895 29.9634C14.5819 30.0441 14.4516 30.089 14.317 30.0915C14.1825 30.094 14.0506 30.0541 13.94 29.9775C12.801 29.1886 11.8132 28.2013 11.0239 27.0626C10.9472 26.952 10.9073 26.8201 10.9098 26.6856C10.9123 26.551 10.9572 26.4207 11.038 26.3131L12.4428 24.4393C12.2815 24.1066 12.141 23.7643 12.022 23.4143L9.70225 23.0824C9.5692 23.0634 9.44552 23.0029 9.34872 22.9097C9.25191 22.8164 9.18689 22.6951 9.16284 22.5629C8.90446 21.2 8.90446 19.8007 9.16284 18.4379C9.1868 18.3054 9.25187 18.1839 9.34881 18.0905C9.44575 17.9972 9.56964 17.9367 9.70289 17.9177L12.0213 17.5865C12.1404 17.2365 12.2809 16.8942 12.4422 16.5615L11.0367 14.687C10.956 14.5793 10.9113 14.449 10.9089 14.3144C10.9064 14.1799 10.9465 14.048 11.0232 13.9375C11.8072 12.7946 12.7956 11.8064 13.9387 11.0227C14.0492 10.9459 14.1811 10.9059 14.3156 10.9083C14.4502 10.9107 14.5805 10.9554 14.6882 11.0361L16.5621 12.4416C16.8947 12.2802 17.2371 12.1394 17.5871 12.0201L17.9183 9.70169C17.9373 9.56864 17.9978 9.44496 18.091 9.34815C18.1842 9.25135 18.3056 9.18632 18.4378 9.16228C19.8006 8.90098 21.2006 8.90098 22.5634 9.16228C22.6957 9.18632 22.817 9.25135 22.9102 9.34815C23.0035 9.44496 23.0639 9.56864 23.083 9.70169L23.4142 12.0201C23.7643 12.1395 24.1066 12.2805 24.4392 12.4423L26.313 11.0329C26.4208 10.9521 26.5513 10.9073 26.6859 10.9049C26.8206 10.9025 26.9526 10.9425 27.0632 11.0195C27.6268 11.4099 28.1552 11.8489 28.6423 12.3315C29.1348 12.8239 29.5817 13.3599 29.9774 13.933C30.0541 14.0436 30.094 14.1755 30.0914 14.3101C30.0889 14.4446 30.0441 14.5749 29.9633 14.6825L28.5584 16.5551C28.7197 16.8878 28.8602 17.2301 28.9793 17.5801L31.2977 17.9113C31.431 17.9303 31.5549 17.9907 31.6518 18.0841C31.7487 18.1775 31.8138 18.299 31.8378 18.4315C32.0961 19.7943 32.0961 21.1936 31.8378 22.5565C31.8137 22.6888 31.7486 22.8102 31.6516 22.9034C31.5547 22.9967 31.4309 23.0571 31.2977 23.076L28.9793 23.4072C28.86 23.7572 28.7192 24.0996 28.5578 24.4322L29.9627 26.306C30.0434 26.4137 30.0883 26.544 30.0908 26.6785C30.0933 26.8131 30.0534 26.945 29.9767 27.0556C29.188 28.1947 28.2004 29.1823 27.0613 29.9711C26.9922 30.0206 26.914 30.0558 26.8312 30.0748C26.7484 30.0938 26.6626 30.0962 26.5789 30.0817C26.4952 30.0672 26.4152 30.0362 26.3436 29.9906C26.2719 29.9449 26.2101 29.8854 26.1617 29.8156C26.1132 29.7458 26.0792 29.6671 26.0614 29.584C26.0437 29.5009 26.0427 29.4151 26.0585 29.3316C26.0742 29.2481 26.1064 29.1686 26.1532 29.0977C26.2 29.0268 26.2604 28.9659 26.331 28.9185C27.2174 28.3047 28.0016 27.5549 28.6545 26.6968L27.2906 24.8858C27.2167 24.7873 27.1727 24.6696 27.164 24.5468C27.1553 24.424 27.1821 24.3012 27.2413 24.1933C27.5072 23.7051 27.7194 23.1896 27.8742 22.6558C27.9088 22.5377 27.9767 22.432 28.0697 22.3515C28.1628 22.2709 28.277 22.2189 28.3989 22.2016L30.6494 21.8812C30.7826 20.9657 30.7826 20.0357 30.6494 19.1202L28.3989 18.7998C28.2771 18.7824 28.1629 18.7302 28.07 18.6495C27.977 18.5689 27.9093 18.4631 27.8749 18.345C27.7207 17.811 27.5087 17.2954 27.2426 16.8075C27.1831 16.6995 27.1561 16.5767 27.1648 16.4537C27.1734 16.3308 27.2173 16.213 27.2913 16.1143L28.6545 14.2975C28.3796 13.9321 28.0799 13.586 27.7576 13.2616C27.4273 12.9332 27.0755 12.6272 26.7044 12.3455L24.887 13.7094C24.7886 13.7834 24.6709 13.8275 24.5481 13.8364C24.4253 13.8452 24.3025 13.8185 24.1945 13.7594C23.7065 13.493 23.1909 13.2806 22.657 13.1258C22.5389 13.0913 22.4334 13.0235 22.3528 12.9306C22.2723 12.8377 22.2202 12.7235 22.2028 12.6018L21.8825 10.3506C20.967 10.2167 20.0369 10.2167 19.1214 10.3506L18.801 12.6018C18.7836 12.7235 18.7315 12.8377 18.651 12.9306C18.5704 13.0235 18.4649 13.0913 18.3468 13.1258C17.8127 13.2799 17.2971 13.4921 16.8093 13.7588C16.7013 13.8181 16.5784 13.845 16.4555 13.8363C16.3325 13.8275 16.2147 13.7835 16.1162 13.7094L14.2987 12.3468C13.9308 12.6241 13.5823 12.9263 13.2558 13.2514C12.9294 13.5793 12.6256 13.929 12.3467 14.2982L13.7094 16.1156C13.7832 16.2142 13.827 16.3319 13.8356 16.4547C13.8443 16.5775 13.8173 16.7002 13.758 16.8081C13.4919 17.2961 13.2799 17.8116 13.1257 18.3456C13.0913 18.4639 13.0234 18.5696 12.9304 18.6503C12.8373 18.731 12.723 18.7831 12.6011 18.8005L10.3512 19.1208C10.218 20.0363 10.218 20.9663 10.3512 21.8819L12.603 22.2022C12.7248 22.2197 12.839 22.2719 12.9319 22.3525C13.0249 22.4332 13.0926 22.5389 13.127 22.657C13.2813 23.191 13.4933 23.7065 13.7593 24.1945C13.8186 24.3024 13.8456 24.4252 13.8369 24.548C13.8283 24.6708 13.7844 24.7885 13.7106 24.8871L12.348 26.7045C12.9078 27.4397 13.5644 28.0959 14.3 28.6552L16.1162 27.2907C16.2146 27.2167 16.3323 27.1726 16.4551 27.1637C16.5779 27.1549 16.7007 27.1816 16.8087 27.2407C17.2965 27.5072 17.8121 27.7192 18.3462 27.873C18.4642 27.9076 18.5698 27.9753 18.6503 28.0683C18.7309 28.1612 18.783 28.2753 18.8004 28.397L19.1207 30.6482C20.0362 30.7821 20.9663 30.7821 21.8818 30.6482L22.2021 28.397C22.2196 28.2752 22.2718 28.161 22.3525 28.0681C22.4331 27.9752 22.5388 27.9075 22.657 27.873C23.191 27.7191 23.7066 27.5071 24.1945 27.2407C24.3435 27.159 24.5188 27.1398 24.682 27.1874C24.8451 27.235 24.9827 27.3454 25.0644 27.4944C25.1462 27.6434 25.1653 27.8188 25.1178 27.9819C25.0702 28.1451 24.9598 28.2826 24.8107 28.3644C24.3644 28.6088 23.8975 28.8137 23.4155 28.9768L23.0849 31.2952C23.0658 31.4283 23.0054 31.552 22.9122 31.6488C22.8189 31.7456 22.6976 31.8106 22.5654 31.8346C21.8843 31.9627 21.193 32.0285 20.5 32.0313Z" fill="#0070FA"/>
<path d="M20.5 24.3438C19.7398 24.3438 18.9966 24.1183 18.3645 23.696C17.7324 23.2736 17.2398 22.6733 16.9488 21.9709C16.6579 21.2686 16.5818 20.4957 16.7301 19.7501C16.8784 19.0045 17.2445 18.3196 17.7821 17.7821C18.3196 17.2445 19.0045 16.8784 19.7501 16.7301C20.4957 16.5818 21.2686 16.6579 21.9709 16.9488C22.6733 17.2398 23.2736 17.7324 23.696 18.3645C24.1183 18.9966 24.3438 19.7398 24.3438 20.5C24.3427 21.5191 23.9374 22.4962 23.2168 23.2168C22.4962 23.9374 21.5191 24.3427 20.5 24.3438ZM20.5 17.9375C19.9932 17.9375 19.4978 18.0878 19.0764 18.3694C18.655 18.6509 18.3265 19.0511 18.1326 19.5194C17.9386 19.9876 17.8879 20.5028 17.9867 20.9999C18.0856 21.497 18.3297 21.9536 18.688 22.312C19.0464 22.6703 19.503 22.9144 20.0001 23.0133C20.4972 23.1121 21.0124 23.0614 21.4806 22.8674C21.9489 22.6735 22.3491 22.3451 22.6306 21.9237C22.9122 21.5023 23.0625 21.0068 23.0625 20.5C23.0625 19.8204 22.7925 19.1686 22.312 18.688C21.8314 18.2075 21.1796 17.9375 20.5 17.9375Z" fill="#0070FA"/>
<path d="M23.0625 2.5625C23.0625 1.88288 22.7925 1.2311 22.312 0.750539C21.8314 0.269977 21.1796 0 20.5 0C19.8204 0 19.1686 0.269977 18.6881 0.750539C18.2075 1.2311 17.9375 1.88288 17.9375 2.5625C17.9416 2.66986 17.9525 2.77684 17.9702 2.88281L11.0188 5.66633C10.8807 5.72176 10.7662 5.82352 10.695 5.95414C10.6238 6.08477 10.6002 6.23611 10.6284 6.3822C10.6566 6.52828 10.7348 6.66 10.8495 6.75475C10.9642 6.8495 11.1083 6.90137 11.2571 6.90145C11.3385 6.9017 11.4192 6.88626 11.4947 6.85597L18.4455 4.07502C18.7928 4.54742 19.292 4.88603 19.8594 5.03403V7.6875C19.8594 7.8574 19.9269 8.02035 20.047 8.14049C20.1672 8.26063 20.3301 8.32812 20.5 8.32812C20.6699 8.32812 20.8329 8.26063 20.953 8.14049C21.0731 8.02035 21.1406 7.8574 21.1406 7.6875V5.03403C21.6891 4.89242 22.1752 4.57307 22.5229 4.1259C22.8706 3.67873 23.0604 3.12895 23.0625 2.5625ZM20.5 3.84375C20.2466 3.84375 19.9989 3.76861 19.7882 3.62782C19.5775 3.48703 19.4133 3.28693 19.3163 3.05281C19.2193 2.8187 19.1939 2.56108 19.2434 2.31254C19.2928 2.064 19.4148 1.83571 19.594 1.65652C19.7732 1.47733 20.0015 1.35531 20.2501 1.30587C20.4986 1.25643 20.7562 1.2818 20.9903 1.37878C21.2244 1.47575 21.4245 1.63998 21.5653 1.85068C21.7061 2.06138 21.7813 2.30909 21.7813 2.5625C21.7813 2.90231 21.6463 3.2282 21.406 3.46848C21.1657 3.70876 20.8398 3.84375 20.5 3.84375Z" fill="#0070FA"/>
<path d="M33.3125 5.125C32.9112 5.12603 32.5159 5.22164 32.1585 5.40407C31.8011 5.5865 31.4917 5.85061 31.2555 6.17498L24.304 3.39531C24.149 3.34414 23.9803 3.3541 23.8323 3.42316C23.6844 3.49221 23.5684 3.61515 23.508 3.76685C23.4477 3.91855 23.4475 4.08757 23.5076 4.23938C23.5677 4.39119 23.6834 4.51434 23.8313 4.58367L30.7827 7.36718C30.765 7.47315 30.7541 7.58014 30.75 7.6875C30.7524 8.14368 30.8779 8.59076 31.1132 8.98156L29.0158 11.0783C28.9546 11.1374 28.9058 11.2081 28.8723 11.2863C28.8387 11.3644 28.821 11.4485 28.8203 11.5336C28.8195 11.6186 28.8357 11.703 28.868 11.7817C28.9002 11.8604 28.9477 11.932 29.0079 11.9921C29.068 12.0523 29.1396 12.0998 29.2183 12.132C29.297 12.1642 29.3814 12.1805 29.4664 12.1797C29.5515 12.179 29.6356 12.1613 29.7137 12.1277C29.7919 12.0942 29.8626 12.0454 29.9217 11.9842L32.0191 9.8874C32.3582 10.087 32.7387 10.2057 33.1311 10.2343C33.5236 10.2628 33.9173 10.2005 34.2817 10.0521C34.6461 9.90366 34.9713 9.67318 35.2321 9.37857C35.4929 9.08396 35.6823 8.73316 35.7854 8.35345C35.8885 7.97374 35.9027 7.57536 35.8267 7.1893C35.7508 6.80323 35.5868 6.43988 35.3475 6.12752C35.1083 5.81516 34.8002 5.5622 34.4472 5.38833C34.0943 5.21445 33.706 5.12433 33.3125 5.125ZM33.3125 8.96875C33.0591 8.96875 32.8114 8.8936 32.6007 8.75282C32.39 8.61203 32.2258 8.41193 32.1288 8.17781C32.0318 7.94369 32.0064 7.68607 32.0559 7.43754C32.1053 7.189 32.2273 6.9607 32.4065 6.78152C32.5857 6.60233 32.814 6.4803 33.0625 6.43086C33.3111 6.38143 33.5687 6.4068 33.8028 6.50377C34.0369 6.60075 34.237 6.76497 34.3778 6.97567C34.5186 7.18637 34.5938 7.43409 34.5938 7.6875C34.5938 8.0273 34.4588 8.35319 34.2185 8.59348C33.9782 8.83376 33.6523 8.96875 33.3125 8.96875Z" fill="#0070FA"/>
<path d="M38.4375 17.8574C38.3191 17.8608 38.2012 17.8728 38.0845 17.8932L35.3343 11.0187C35.2712 10.8609 35.148 10.7345 34.9917 10.6676C34.8355 10.6006 34.659 10.5984 34.5012 10.6615C34.3433 10.7247 34.217 10.8479 34.1501 11.0041C34.0831 11.1604 34.0809 11.3368 34.144 11.4947L36.9 18.3859C36.4155 18.7479 36.0751 19.27 35.9391 19.8593H33.3125C33.1426 19.8593 32.9796 19.9268 32.8595 20.047C32.7394 20.1671 32.6719 20.33 32.6719 20.4999C32.6719 20.6698 32.7394 20.8328 32.8595 20.9529C32.9796 21.0731 33.1426 21.1406 33.3125 21.1406H35.991C36.1257 21.5958 36.3845 22.0045 36.7384 22.321C37.0922 22.6375 37.5272 22.8492 37.9946 22.9325C38.462 23.0157 38.9433 22.9673 39.3847 22.7925C39.8261 22.6177 40.2101 22.3235 40.4938 21.9428C40.7775 21.5621 40.9496 21.11 40.9909 20.6371C41.0321 20.1641 40.9409 19.689 40.7275 19.265C40.5141 18.8409 40.1868 18.4846 39.7824 18.236C39.3779 17.9874 38.9122 17.8563 38.4375 17.8574ZM38.4375 21.7011C38.1841 21.7011 37.9364 21.626 37.7257 21.4852C37.515 21.3444 37.3508 21.1443 37.2538 20.9102C37.1568 20.6761 37.1314 20.4184 37.1809 20.1699C37.2303 19.9214 37.3523 19.6931 37.5315 19.5139C37.7107 19.3347 37.939 19.2127 38.1875 19.1632C38.4361 19.1138 38.6937 19.1392 38.9278 19.2361C39.1619 19.3331 39.362 19.4973 39.5028 19.708C39.6436 19.9187 39.7188 20.1665 39.7188 20.4199C39.7188 20.7597 39.5838 21.0856 39.3435 21.3258C39.1032 21.5661 38.7773 21.7011 38.4375 21.7011Z" fill="#0070FA"/>
<path d="M37.2485 23.4712C37.1704 23.4399 37.0869 23.4243 37.0028 23.4253C36.9186 23.4264 36.8355 23.4439 36.7582 23.4771C36.6809 23.5102 36.6108 23.5582 36.552 23.6185C36.4933 23.6787 36.4469 23.7499 36.4157 23.828L33.6386 30.7711L33.6418 30.7832C33.0787 30.6843 32.499 30.8019 32.0191 31.1125L29.9217 29.0158C29.8009 28.8991 29.639 28.8345 29.4711 28.836C29.3031 28.8374 29.1424 28.9048 29.0236 29.0236C28.9049 29.1423 28.8375 29.303 28.836 29.471C28.8346 29.639 28.8991 29.8008 29.0158 29.9216L31.1132 32.0184C30.8779 32.4092 30.7524 32.8562 30.75 33.3124C30.7482 33.751 30.8589 34.1827 31.0716 34.5662C31.2844 34.9497 31.592 35.2722 31.965 35.5028C32.338 35.7335 32.764 35.8645 33.2022 35.8834C33.6404 35.9022 34.076 35.8083 34.4675 35.6107C34.859 35.413 35.1932 35.1181 35.4381 34.7543C35.6831 34.3905 35.8305 33.9699 35.8664 33.5328C35.9023 33.0957 35.8254 32.6567 35.643 32.2579C35.4607 31.859 35.179 31.5136 34.825 31.2547L37.6047 24.304C37.6679 24.1463 37.6658 23.97 37.599 23.8138C37.5322 23.6576 37.4061 23.5344 37.2485 23.4712ZM33.3125 34.5937C33.0591 34.5937 32.8114 34.5185 32.6007 34.3778C32.39 34.237 32.2258 34.0369 32.1288 33.8027C32.0318 33.5686 32.0064 33.311 32.0559 33.0625C32.1053 32.8139 32.2273 32.5856 32.4065 32.4065C32.5857 32.2273 32.814 32.1052 33.0625 32.0558C33.3111 32.0064 33.5687 32.0317 33.8028 32.1287C34.0369 32.2257 34.237 32.3899 34.3778 32.6006C34.5186 32.8113 34.5938 33.059 34.5938 33.3124C34.5938 33.6522 34.4588 33.9781 34.2185 34.2184C33.9782 34.4587 33.6523 34.5937 33.3125 34.5937Z" fill="#0070FA"/>
<path d="M30.4015 34.6226C30.3316 34.4679 30.2031 34.3472 30.0443 34.2872C29.8855 34.2271 29.7094 34.2325 29.5546 34.3023L22.8062 37.3382C22.6451 37.0021 22.4126 36.7052 22.1249 36.4682C21.8372 36.2312 21.5013 36.0598 21.1406 35.966V33.3125C21.1406 33.1426 21.0731 32.9796 20.953 32.8595C20.8328 32.7394 20.6699 32.6719 20.5 32.6719C20.3301 32.6719 20.1671 32.7394 20.047 32.8595C19.9268 32.9796 19.8594 33.1426 19.8594 33.3125V35.966C19.4038 36.0825 18.9893 36.3225 18.6612 36.6594C18.3332 36.9963 18.1045 37.4172 18.0002 37.8757C17.8959 38.3342 17.92 38.8125 18.0699 39.2582C18.2199 39.7039 18.4898 40.0996 18.8501 40.4018C19.2104 40.7039 19.647 40.9009 20.1119 40.971C20.5769 41.0412 21.0522 40.9817 21.4855 40.7992C21.9189 40.6167 22.2935 40.3182 22.5682 39.9366C22.8429 39.555 23.0071 39.105 23.0426 38.6361L30.0805 35.4695C30.2354 35.3997 30.3561 35.2713 30.4163 35.1125C30.4765 34.9537 30.4712 34.7775 30.4015 34.6226ZM20.5 39.7188C20.2466 39.7188 19.9989 39.6436 19.7882 39.5028C19.5775 39.362 19.4132 39.1619 19.3163 38.9278C19.2193 38.6937 19.1939 38.4361 19.2433 38.1875C19.2928 37.939 19.4148 37.7107 19.594 37.5315C19.7732 37.3523 20.0015 37.2303 20.25 37.1809C20.4986 37.1314 20.7562 37.1568 20.9903 37.2538C21.2244 37.3508 21.4245 37.515 21.5653 37.7257C21.7061 37.9364 21.7812 38.1841 21.7812 38.4375C21.7812 38.7773 21.6462 39.1032 21.406 39.3435C21.1657 39.5838 20.8398 39.7188 20.5 39.7188Z" fill="#0070FA"/>
<path d="M17.0618 36.8282L10.2071 33.7429C10.2338 33.6009 10.2481 33.4569 10.25 33.3124C10.2476 32.8563 10.1221 32.4092 9.88676 32.0184L11.9842 29.9216C12.1009 29.8008 12.1654 29.639 12.164 29.471C12.1625 29.303 12.0951 29.1423 11.9764 29.0236C11.8576 28.9048 11.6969 28.8374 11.5289 28.836C11.361 28.8345 11.1991 28.8991 11.0783 29.0158L8.98092 31.1125C8.55822 30.8605 8.0719 30.7355 7.58007 30.7526C7.08824 30.7696 6.61171 30.9278 6.20744 31.2085C5.80316 31.4891 5.48825 31.8802 5.30033 32.335C5.1124 32.7898 5.05943 33.2892 5.14773 33.7733C5.23603 34.2574 5.46187 34.7059 5.79826 35.0651C6.13465 35.4243 6.56736 35.6791 7.04467 35.7989C7.52198 35.9187 8.0237 35.8986 8.48987 35.7409C8.95603 35.5831 9.36693 35.2945 9.67343 34.9095L16.5345 37.9967C16.6114 38.0324 16.6947 38.0525 16.7794 38.0559C16.8641 38.0592 16.9487 38.0456 17.0282 38.016C17.1076 37.9864 17.1804 37.9413 17.2423 37.8834C17.3042 37.8254 17.354 37.7557 17.3888 37.6784C17.4235 37.6011 17.4426 37.5176 17.4449 37.4328C17.4471 37.348 17.4325 37.2637 17.4019 37.1846C17.3714 37.1055 17.3254 37.0333 17.2666 36.9721C17.2079 36.9109 17.1376 36.862 17.0598 36.8282H17.0618ZM7.6875 34.5937C7.43409 34.5937 7.18637 34.5185 6.97567 34.3778C6.76497 34.237 6.60075 34.0369 6.50378 33.8028C6.4068 33.5686 6.38143 33.311 6.43087 33.0625C6.4803 32.8139 6.60233 32.5856 6.78152 32.4065C6.9607 32.2273 7.189 32.1052 7.43754 32.0558C7.68608 32.0064 7.94369 32.0317 8.17781 32.1287C8.41193 32.2257 8.61203 32.3899 8.75282 32.6006C8.8936 32.8113 8.96875 33.059 8.96875 33.3124C8.96875 33.6522 8.83376 33.9781 8.59348 34.2184C8.3532 34.4587 8.02731 34.5937 7.6875 34.5937Z" fill="#0070FA"/>
<path d="M7.68749 19.8594H5.03402C4.91338 19.3965 4.66537 18.9768 4.31815 18.6477C3.97092 18.3187 3.5384 18.0937 3.06969 17.9981C2.60098 17.9025 2.11487 17.9403 1.66655 18.1071C1.21824 18.274 0.825684 18.5632 0.533465 18.9419C0.241246 19.3206 0.0610731 19.7737 0.0134052 20.2496C-0.0342626 20.7256 0.0524847 21.2054 0.263797 21.6346C0.475109 22.0637 0.802518 22.425 1.20885 22.6774C1.61517 22.9298 2.08414 23.0633 2.56249 23.0626C2.66986 23.0587 2.77687 23.0478 2.8828 23.0299L5.66568 29.9813C5.71321 30.1003 5.79533 30.2023 5.90142 30.2741C6.00751 30.3459 6.1327 30.3843 6.26082 30.3843C6.36559 30.3843 6.46877 30.3587 6.56134 30.3097C6.65391 30.2606 6.73303 30.1896 6.79177 30.1028C6.85051 30.0161 6.88708 29.9162 6.89827 29.8121C6.90946 29.7079 6.89493 29.6026 6.85596 29.5053L4.07565 22.5545C4.54766 22.207 4.88599 21.7079 5.03402 21.1407H7.68749C7.85739 21.1407 8.02034 21.0732 8.14048 20.9531C8.26062 20.8329 8.32812 20.67 8.32812 20.5001C8.32812 20.3302 8.26062 20.1672 8.14048 20.0471C8.02034 19.9269 7.85739 19.8594 7.68749 19.8594ZM1.28124 20.5001C1.28124 20.2467 1.35638 19.9989 1.49717 19.7882C1.63796 19.5775 1.83806 19.4133 2.07218 19.3163C2.30629 19.2194 2.56391 19.194 2.81245 19.2434C3.06099 19.2929 3.28928 19.4149 3.46847 19.5941C3.64766 19.7733 3.76968 20.0016 3.81912 20.2501C3.86856 20.4986 3.84319 20.7563 3.74621 20.9904C3.64924 21.2245 3.48501 21.4246 3.27431 21.5654C3.06361 21.7062 2.8159 21.7813 2.56249 21.7813C2.22268 21.7813 1.89679 21.6463 1.65651 21.406C1.41623 21.1658 1.28124 20.8399 1.28124 20.5001Z" fill="#0070FA"/>
<path d="M11.9842 11.0784L9.88679 8.98162C10.1221 8.59082 10.2476 8.14374 10.25 7.68756C10.2519 7.24899 10.1411 6.81729 9.92839 6.43378C9.71566 6.05026 9.40805 5.72776 9.03501 5.49714C8.66197 5.26652 8.23599 5.13551 7.79783 5.11663C7.35967 5.09776 6.92399 5.19165 6.5325 5.38934C6.14102 5.58702 5.80682 5.88187 5.56189 6.24567C5.31696 6.60948 5.1695 7.03005 5.13363 7.46715C5.09776 7.90425 5.17467 8.34324 5.357 8.74211C5.53933 9.14098 5.82099 9.48638 6.175 9.74524L3.39533 16.696C3.36408 16.7741 3.34852 16.8576 3.34953 16.9418C3.35055 17.0259 3.36813 17.109 3.40126 17.1863C3.4344 17.2637 3.48244 17.3337 3.54265 17.3925C3.60286 17.4513 3.67405 17.4976 3.75216 17.5288C3.83027 17.5601 3.91378 17.5757 3.9979 17.5746C4.08203 17.5736 4.16513 17.556 4.24247 17.5229C4.3198 17.4898 4.38985 17.4417 4.44862 17.3815C4.50739 17.3213 4.55372 17.2501 4.58497 17.172L7.36721 10.2174C7.47313 10.2354 7.58014 10.2463 7.68752 10.2501C8.14338 10.2474 8.59014 10.1222 8.98094 9.88746L11.0783 11.9842C11.1992 12.1009 11.361 12.1655 11.529 12.164C11.6969 12.1626 11.8576 12.0952 11.9764 11.9764C12.0952 11.8576 12.1625 11.697 12.164 11.529C12.1655 11.361 12.1009 11.1992 11.9842 11.0784ZM6.40627 7.68756C6.40627 7.43415 6.48141 7.18643 6.6222 6.97573C6.76298 6.76503 6.96309 6.60081 7.19721 6.50384C7.43132 6.40686 7.68894 6.38149 7.93748 6.43093C8.18602 6.48036 8.41431 6.60239 8.5935 6.78158C8.77269 6.96076 8.89471 7.18906 8.94415 7.4376C8.99359 7.68614 8.96821 7.94375 8.87124 8.17787C8.77427 8.41199 8.61004 8.61209 8.39934 8.75288C8.18864 8.89366 7.94093 8.96881 7.68752 8.96881C7.34771 8.96881 7.02182 8.83382 6.78154 8.59354C6.54126 8.35326 6.40627 8.02737 6.40627 7.68756Z" fill="#0070FA"/>
</g>
<defs>
<clipPath id="clip0_7_1247">
<rect width="41" height="41" fill="white"/>
</clipPath>
</defs>
</svg>
