<svg width="41" height="41" viewBox="0 0 41 41" fill="none" xmlns="http://www.w3.org/2000/svg">
<path d="M35.7197 21.991H5.21818C3.47879 21.991 2.11212 20.6243 2.11212 18.8849V4.03795C2.11212 2.29855 3.47879 0.931885 5.21818 0.931885H35.7197C37.4591 0.931885 38.8258 2.29855 38.8258 4.03795V18.8849C38.8258 20.5622 37.397 21.991 35.7197 21.991ZM5.21818 2.17431C4.16212 2.17431 3.35455 2.98188 3.35455 4.03795V18.8849C3.35455 19.941 4.16212 20.7486 5.21818 20.7486H35.7197C36.7758 20.7486 37.5833 19.941 37.5833 18.8849V4.03795C37.5833 2.98188 36.7758 2.17431 35.7197 2.17431H5.21818Z" fill="#0070FA"/>
<path d="M29.7561 17.8289C29.6318 17.8289 29.5076 17.7668 29.3834 17.7047C29.2591 17.5805 29.1349 17.3941 29.1349 17.2699C29.1349 16.7108 28.8243 16.338 28.6379 16.338C28.4515 16.338 28.1409 16.7108 28.1409 17.2699C28.1409 17.4562 28.0788 17.6426 27.8925 17.7047C27.7682 17.8289 27.5818 17.8911 27.3955 17.8289C26.4637 17.6426 25.6561 17.332 24.8485 16.7729C24.7243 16.6486 24.6 16.5244 24.6 16.338C24.6 16.1517 24.6621 15.9653 24.7864 15.8411C25.1591 15.4062 25.2212 14.9092 25.097 14.785C24.9728 14.6608 24.4758 14.7229 24.0409 15.0956C23.9167 15.2199 23.7303 15.282 23.544 15.282C23.3576 15.282 23.2334 15.1577 23.1091 15.0335C22.55 14.288 22.2394 13.4183 22.0531 12.4865C21.9909 12.3002 22.0531 12.1138 22.1773 11.9895C22.3015 11.8653 22.4879 11.7411 22.6121 11.7411C23.1712 11.7411 23.6061 11.4305 23.6061 11.2441C23.6061 11.0577 23.2334 10.7471 22.6121 10.7471C22.4258 10.7471 22.2394 10.685 22.1773 10.4986C22.0531 10.3744 21.9909 10.188 22.0531 10.0017C22.2394 9.06985 22.55 8.20016 23.1091 7.4547C23.2334 7.33046 23.3576 7.20622 23.544 7.20622C23.7303 7.20622 23.9167 7.26834 24.0409 7.39258C24.4758 7.82743 24.9728 7.82743 25.097 7.70318C25.2212 7.57894 25.1591 7.08197 24.7864 6.64712C24.6621 6.52288 24.6 6.33652 24.6 6.15015C24.6 5.96379 24.7243 5.77743 24.8485 5.71531C25.6561 5.15622 26.4637 4.84561 27.3955 4.65925C27.5818 4.59712 27.7682 4.65925 27.8925 4.78349C28.0167 4.90773 28.1409 5.09409 28.1409 5.21834C28.1409 5.83955 28.4515 6.21228 28.6379 6.21228C28.8243 6.21228 29.1349 5.83955 29.1349 5.21834C29.1349 5.03197 29.197 4.84561 29.3834 4.72137C29.5076 4.59712 29.694 4.535 29.8803 4.59712C30.8121 4.78349 31.6818 5.09409 32.4273 5.65319C32.5515 5.77743 32.6758 5.90167 32.6758 6.08803C32.6758 6.2744 32.6137 6.46076 32.4894 6.585C32.0546 7.01985 31.9925 7.51682 32.1788 7.64106C32.3031 7.76531 32.8 7.70319 33.2349 7.33046C33.3591 7.20622 33.5455 7.14409 33.7318 7.14409C33.9182 7.14409 34.1046 7.26834 34.1667 7.39258C34.6637 8.20015 35.0364 9.00773 35.2228 9.93955C35.2849 10.1259 35.2228 10.3123 35.0985 10.4365C34.9743 10.5608 34.7879 10.685 34.6637 10.685C34.1046 10.685 33.6697 10.9956 33.6697 11.182C33.6697 11.3683 34.0424 11.6789 34.6637 11.6789C34.85 11.6789 35.0364 11.7411 35.0985 11.9274C35.2228 12.0517 35.2849 12.238 35.2228 12.4244C35.0364 13.3562 34.6637 14.1638 34.1667 14.9714C34.0425 15.0956 33.9182 15.2199 33.7318 15.2199C33.5455 15.2199 33.3591 15.1577 33.2349 15.0335C32.8 14.6608 32.3031 14.5986 32.1788 14.7229C32.0546 14.8471 32.1167 15.3441 32.4894 15.7789C32.6137 15.9032 32.6758 16.0896 32.6758 16.2759C32.6758 16.4623 32.5515 16.5865 32.4273 16.7108C31.6818 17.2077 30.8121 17.5805 29.8803 17.7668C29.8182 17.8289 29.8182 17.8289 29.7561 17.8289ZM26.0909 16.0896C26.4015 16.2759 26.7121 16.4002 27.0228 16.4623C27.2712 15.5926 27.8924 15.0335 28.6379 15.0335C29.3834 15.0335 30.0046 15.5926 30.2531 16.4623C30.5637 16.338 30.8743 16.2138 31.1849 16.0896C30.75 15.282 30.8121 14.4744 31.3712 13.9153C31.8682 13.4183 32.7379 13.3562 33.5455 13.7911C33.7318 13.4805 33.8561 13.1699 33.9182 12.8592C33.0485 12.6108 32.4894 11.9895 32.4894 11.2441C32.4894 10.4986 33.0485 9.87743 33.9182 9.62894C33.794 9.31834 33.6697 9.00773 33.5455 8.69712C32.7379 9.13197 31.8682 9.06985 31.3712 8.57288C30.8121 8.01379 30.8121 7.20622 31.247 6.39864C30.9364 6.2744 30.6258 6.08803 30.3152 6.02591C30.0667 6.89561 29.4455 7.4547 28.7 7.4547C27.9546 7.4547 27.3334 6.89561 27.0849 6.02591C26.7743 6.15015 26.4637 6.2744 26.1531 6.39864C26.5879 7.20622 26.5258 8.01379 26.0288 8.57288C25.4697 9.13197 24.6621 9.13197 23.8546 8.69712C23.7303 9.00773 23.544 9.31834 23.4818 9.62894C24.3515 9.87743 24.9106 10.4986 24.9106 11.2441C24.9106 11.9895 24.3515 12.6108 23.4818 12.8592C23.6061 13.1699 23.7303 13.4805 23.8546 13.7911C24.6621 13.3562 25.4697 13.4183 26.0288 13.9774C26.4637 14.4744 26.4637 15.282 26.0909 16.0896Z" fill="#0070FA"/>
<path d="M28.6379 13.9154C27.147 13.9154 25.9667 12.7351 25.9667 11.2442C25.9667 9.7533 27.147 8.573 28.6379 8.573C30.1288 8.573 31.3091 9.7533 31.3091 11.2442C31.3091 12.7351 30.1288 13.9154 28.6379 13.9154ZM28.6379 9.7533C27.8303 9.7533 27.2091 10.3745 27.2091 11.1821C27.2091 11.9897 27.8303 12.6109 28.6379 12.6109C29.4455 12.6109 30.0667 11.9897 30.0667 11.1821C30.0667 10.3745 29.4455 9.7533 28.6379 9.7533Z" fill="#0070FA"/>
<path d="M11.1818 18.388C11.1197 18.388 11.1197 18.388 11.0576 18.388C10.8712 18.3259 10.6848 18.2017 10.5606 18.0153L8.44849 12.6108L6.83333 16.338C6.70909 16.6486 6.33636 16.7729 6.02576 16.6486C5.71515 16.5244 5.59091 16.1517 5.71515 15.8411L7.95152 10.685C8.07576 10.4365 8.26212 10.3123 8.51061 10.3123C8.75909 10.3123 9.00758 10.4986 9.0697 10.685L11.3061 16.5244L19.2576 7.57895C19.5061 7.33046 19.8788 7.26834 20.1273 7.51683C20.3758 7.76531 20.4379 8.13804 20.1894 8.38652L11.6167 18.1396C11.4924 18.2638 11.3061 18.388 11.1818 18.388Z" fill="#0070FA"/>
<path d="M19.7546 11.9897C19.3818 11.9897 19.1333 11.7412 19.1333 11.3684V8.57299H16.3379C15.9652 8.57299 15.7167 8.32451 15.7167 7.95178C15.7167 7.57905 15.9652 7.33057 16.3379 7.33057H19.7546C19.8788 7.33057 20.0652 7.39269 20.1894 7.51693C20.3136 7.64117 20.3758 7.76541 20.3758 7.95178V11.3684C20.3758 11.6791 20.1273 11.9897 19.7546 11.9897Z" fill="#0070FA"/>
<path d="M8.07574 30.3153C6.2121 30.3153 4.72119 28.8244 4.72119 26.9607C4.72119 25.0971 6.2121 23.6062 8.07574 23.6062C9.93937 23.6062 11.4303 25.0971 11.4303 26.9607C11.4303 28.8244 9.93937 30.3153 8.07574 30.3153ZM8.07574 24.7865C6.89543 24.7865 5.96362 25.7183 5.96362 26.8986C5.96362 28.0789 6.89543 29.0107 8.07574 29.0107C9.25604 29.0107 10.1879 28.0789 10.1879 26.8986C10.1879 25.7183 9.25604 24.7865 8.07574 24.7865Z" fill="#0070FA"/>
<path d="M14.9712 40.0684C14.7227 40.0684 14.4742 39.8821 14.35 39.6336L12.8591 33.9805C12.6727 33.173 11.9272 32.6139 11.1197 32.6139H5.09391C4.28634 32.6139 3.54088 33.173 3.35452 33.9805L1.86361 39.5714C1.80149 39.8821 1.42876 40.1305 1.11816 40.0063C0.80755 39.9442 0.559066 39.5714 0.683308 39.2608L2.17422 33.6078C2.48482 32.2411 3.72725 31.3093 5.09391 31.3093H11.0576C12.4242 31.3093 13.6666 32.2411 14.0394 33.6078L15.5303 39.2608C15.5924 39.5714 15.406 39.9442 15.0954 40.0063C15.0954 40.0684 15.0333 40.0684 14.9712 40.0684Z" fill="#0070FA"/>
<path d="M20.4999 30.3153C18.6363 30.3153 17.1454 28.8244 17.1454 26.9607C17.1454 25.0971 18.6363 23.6062 20.4999 23.6062C22.3636 23.6062 23.8545 25.0971 23.8545 26.9607C23.8545 28.8244 22.3636 30.3153 20.4999 30.3153ZM20.4999 24.7865C19.3196 24.7865 18.3878 25.7183 18.3878 26.8986C18.3878 28.0789 19.3196 29.0107 20.4999 29.0107C21.6802 29.0107 22.6121 28.0789 22.6121 26.8986C22.6121 25.7183 21.6802 24.7865 20.4999 24.7865Z" fill="#0070FA"/>
<path d="M14.2878 37.273C14.2257 37.273 14.1636 37.273 14.1015 37.273C13.7909 37.1487 13.6045 36.8381 13.6666 36.5275L14.5363 33.6078C14.9091 32.3033 16.0894 31.3093 17.5181 31.3093H23.4818C24.8484 31.3093 26.0909 32.2411 26.4636 33.6078L27.3333 36.4033C27.4575 36.7139 27.2712 37.0866 26.8984 37.1487C26.5878 37.273 26.2151 37.0866 26.153 36.7139L25.2833 33.9184C25.0348 33.1108 24.3515 32.5518 23.4818 32.5518H17.5181C16.7106 32.5518 15.9651 33.1108 15.7787 33.9184L14.9091 36.8381C14.7848 37.1487 14.5363 37.273 14.2878 37.273Z" fill="#0070FA"/>
<path d="M32.9242 30.3153C31.0606 30.3153 29.5697 28.8244 29.5697 26.9607C29.5697 25.0971 31.0606 23.6062 32.9242 23.6062C34.7879 23.6062 36.2788 25.0971 36.2788 26.9607C36.2788 28.8244 34.7879 30.3153 32.9242 30.3153ZM32.9242 24.7865C31.7439 24.7865 30.8121 25.7183 30.8121 26.8986C30.8121 28.0789 31.7439 29.0107 32.9242 29.0107C34.1046 29.0107 35.0364 28.0789 35.0364 26.8986C35.0364 25.7183 34.1046 24.7865 32.9242 24.7865Z" fill="#0070FA"/>
<path d="M39.7576 40.0683C39.5091 40.0683 39.2606 39.8819 39.1364 39.6335L37.6455 33.9804C37.4591 33.1729 36.7136 32.6138 35.9061 32.6138H29.9424C29.1349 32.6138 28.3894 33.1729 28.203 33.9804L26.7121 39.6335C26.65 39.9441 26.2773 40.1925 25.9667 40.0683C25.6561 40.0062 25.4076 39.6335 25.5318 39.3229L27.0227 33.6698C27.3955 32.3032 28.5758 31.3713 30.0045 31.3713H35.9682C37.3349 31.3713 38.5773 32.3032 38.95 33.6698L40.4409 39.3229C40.503 39.6335 40.3167 40.0062 40.0061 40.0683C39.8818 40.0683 39.8197 40.0683 39.7576 40.0683Z" fill="#0070FA"/>
</svg>
